<svg width="1560" height="460" viewBox="0 0 1560 460" fill="none" xmlns="http://www.w3.org/2000/svg">
<g filter="url(#filter0_f_437_15)">
<rect x="30" y="30" width="1500" height="400" fill="url(#paint0_linear_437_15)"/>
</g>
<path d="M626.097 232.843H613.279L613.211 224.981H623.602C625.47 224.981 626.963 224.776 628.079 224.366C629.196 223.933 630.005 223.307 630.506 222.486C631.03 221.666 631.292 220.641 631.292 219.41C631.292 217.997 631.03 216.858 630.506 215.992C629.982 215.126 629.15 214.5 628.011 214.112C626.894 213.702 625.447 213.497 623.67 213.497H617.791V254H605.794V204.234H623.67C626.746 204.234 629.492 204.519 631.907 205.089C634.323 205.636 636.373 206.479 638.06 207.618C639.769 208.757 641.067 210.193 641.956 211.925C642.845 213.634 643.289 215.65 643.289 217.975C643.289 220.003 642.856 221.905 641.99 223.683C641.124 225.46 639.677 226.907 637.649 228.023C635.644 229.117 632.898 229.687 629.412 229.732L626.097 232.843ZM625.618 254H610.374L614.476 244.771H625.618C627.259 244.771 628.569 244.521 629.549 244.02C630.551 243.495 631.269 242.812 631.702 241.969C632.158 241.103 632.386 240.146 632.386 239.098C632.386 237.822 632.169 236.716 631.736 235.782C631.326 234.848 630.665 234.13 629.754 233.629C628.842 233.105 627.623 232.843 626.097 232.843H616.014L616.082 224.981H628.147L630.95 228.126C634.277 227.989 636.909 228.456 638.846 229.527C640.805 230.598 642.207 232.011 643.05 233.766C643.893 235.52 644.314 237.354 644.314 239.269C644.314 242.527 643.608 245.25 642.195 247.438C640.805 249.625 638.72 251.266 635.94 252.359C633.16 253.453 629.72 254 625.618 254ZM679.28 237.149H691.243C691.084 240.613 690.149 243.666 688.44 246.31C686.731 248.953 684.362 251.015 681.331 252.496C678.323 253.954 674.769 254.684 670.667 254.684C667.34 254.684 664.367 254.125 661.746 253.009C659.148 251.892 656.938 250.286 655.115 248.189C653.315 246.093 651.937 243.552 650.979 240.567C650.045 237.582 649.578 234.221 649.578 230.484V227.784C649.578 224.047 650.068 220.686 651.048 217.701C652.05 214.693 653.463 212.141 655.286 210.045C657.132 207.926 659.342 206.308 661.917 205.191C664.492 204.075 667.352 203.517 670.496 203.517C674.826 203.517 678.483 204.291 681.468 205.841C684.453 207.39 686.766 209.521 688.406 212.232C690.047 214.921 691.015 217.986 691.312 221.427H679.349C679.303 219.558 678.984 217.997 678.392 216.744C677.799 215.468 676.865 214.511 675.589 213.873C674.313 213.235 672.615 212.916 670.496 212.916C669.015 212.916 667.728 213.189 666.634 213.736C665.54 214.283 664.629 215.149 663.899 216.334C663.17 217.519 662.623 219.057 662.259 220.948C661.917 222.817 661.746 225.073 661.746 227.716V230.484C661.746 233.128 661.906 235.383 662.225 237.252C662.544 239.12 663.056 240.647 663.763 241.832C664.469 243.017 665.381 243.894 666.497 244.464C667.636 245.011 669.026 245.284 670.667 245.284C672.49 245.284 674.028 244.999 675.281 244.43C676.535 243.837 677.503 242.949 678.187 241.764C678.87 240.556 679.235 239.018 679.28 237.149ZM731.165 244.771V254H704.642V244.771H731.165ZM708.914 204.234V254H696.917V204.234H708.914ZM727.747 223.99V232.911H704.642V223.99H727.747ZM731.268 204.234V213.497H704.642V204.234H731.268ZM795.628 228.126V230.143C795.628 233.948 795.092 237.366 794.021 240.396C792.973 243.404 791.481 245.979 789.544 248.121C787.607 250.24 785.317 251.869 782.674 253.009C780.031 254.125 777.114 254.684 773.924 254.684C770.711 254.684 767.771 254.125 765.105 253.009C762.462 251.869 760.161 250.24 758.201 248.121C756.264 245.979 754.76 243.404 753.689 240.396C752.641 237.366 752.117 233.948 752.117 230.143V228.126C752.117 224.321 752.641 220.903 753.689 217.872C754.76 214.841 756.253 212.267 758.167 210.147C760.104 208.006 762.394 206.376 765.037 205.26C767.703 204.12 770.643 203.551 773.855 203.551C777.046 203.551 779.962 204.12 782.605 205.26C785.271 206.376 787.573 208.006 789.51 210.147C791.447 212.267 792.951 214.841 794.021 217.872C795.092 220.903 795.628 224.321 795.628 228.126ZM783.46 230.143V228.058C783.46 225.597 783.243 223.432 782.811 221.563C782.4 219.672 781.785 218.089 780.965 216.812C780.145 215.536 779.131 214.579 777.923 213.941C776.738 213.281 775.382 212.95 773.855 212.95C772.26 212.95 770.87 213.281 769.686 213.941C768.501 214.579 767.509 215.536 766.712 216.812C765.914 218.089 765.311 219.672 764.9 221.563C764.513 223.432 764.319 225.597 764.319 228.058V230.143C764.319 232.581 764.513 234.745 764.9 236.637C765.311 238.505 765.914 240.089 766.712 241.388C767.532 242.687 768.535 243.666 769.72 244.327C770.927 244.988 772.329 245.318 773.924 245.318C775.451 245.318 776.806 244.988 777.991 244.327C779.176 243.666 780.167 242.687 780.965 241.388C781.785 240.089 782.4 238.505 782.811 236.637C783.243 234.745 783.46 232.581 783.46 230.143ZM852.811 223.99V233.219H827.278V223.99H852.811ZM831.277 204.234V254H819.28V204.234H831.277ZM860.877 204.234V254H848.914V204.234H860.877ZM890.203 214.693L878.069 254H865.184L883.47 204.234H891.639L890.203 214.693ZM900.252 254L888.084 214.693L886.512 204.234H894.783L913.172 254H900.252ZM899.773 235.44V244.703H874.241V235.44H899.773ZM944.378 237.149H956.341C956.181 240.613 955.247 243.666 953.538 246.31C951.829 248.953 949.459 251.015 946.429 252.496C943.421 253.954 939.866 254.684 935.765 254.684C932.438 254.684 929.464 254.125 926.844 253.009C924.246 251.892 922.036 250.286 920.213 248.189C918.413 246.093 917.034 243.552 916.077 240.567C915.143 237.582 914.676 234.221 914.676 230.484V227.784C914.676 224.047 915.166 220.686 916.146 217.701C917.148 214.693 918.561 212.141 920.384 210.045C922.229 207.926 924.44 206.308 927.015 205.191C929.59 204.075 932.449 203.517 935.594 203.517C939.923 203.517 943.58 204.291 946.565 205.841C949.55 207.39 951.863 209.521 953.504 212.232C955.145 214.921 956.113 217.986 956.409 221.427H944.446C944.401 219.558 944.082 217.997 943.489 216.744C942.897 215.468 941.963 214.511 940.687 213.873C939.41 213.235 937.713 212.916 935.594 212.916C934.113 212.916 932.825 213.189 931.731 213.736C930.638 214.283 929.726 215.149 928.997 216.334C928.268 217.519 927.721 219.057 927.356 220.948C927.015 222.817 926.844 225.073 926.844 227.716V230.484C926.844 233.128 927.003 235.383 927.322 237.252C927.641 239.12 928.154 240.647 928.86 241.832C929.567 243.017 930.478 243.894 931.595 244.464C932.734 245.011 934.124 245.284 935.765 245.284C937.588 245.284 939.126 244.999 940.379 244.43C941.632 243.837 942.601 242.949 943.284 241.764C943.968 240.556 944.332 239.018 944.378 237.149Z" fill="#0087FF" fill-opacity="0.6"/>
<defs>
<filter id="filter0_f_437_15" x="0" y="0" width="1560" height="460" filterUnits="userSpaceOnUse" color-interpolation-filters="sRGB">
<feFlood flood-opacity="0" result="BackgroundImageFix"/>
<feBlend mode="normal" in="SourceGraphic" in2="BackgroundImageFix" result="shape"/>
<feGaussianBlur stdDeviation="15" result="effect1_foregroundBlur_437_15"/>
</filter>
<linearGradient id="paint0_linear_437_15" x1="780" y1="30" x2="780" y2="430" gradientUnits="userSpaceOnUse">
<stop stop-color="#002887"/>
<stop offset="1" stop-color="#002887" stop-opacity="0.51"/>
</linearGradient>
</defs>
</svg>
