<svg width="6" height="9" viewBox="0 0 6 9" fill="none" xmlns="http://www.w3.org/2000/svg">
<path d="M4.716 1.596C4.572 1.364 4.38 1.156 4.14 0.972C3.908 0.78 3.664 0.652 3.408 0.588C3.176 0.595999 2.936 0.595999 2.688 0.588C2.448 0.58 2.204 0.576 1.956 0.576C1.708 0.568 1.46 0.576 1.212 0.599999C0.972 0.616 0.74 0.652 0.516 0.707999C0.508 0.715999 0.5 0.724 0.492 0.732C0.492 0.74 0.488 0.748 0.48 0.756C0.496 1.452 0.496 2.156 0.48 2.868C0.472 3.572 0.468 4.272 0.468 4.968C0.468 5.664 0.48 6.352 0.504 7.032C0.528 7.704 0.584 8.356 0.672 8.988C0.68 8.98 0.684 8.976 0.684 8.976C1.188 8.976 1.708 8.976 2.244 8.976C2.78 8.968 3.312 8.956 3.84 8.94C4.144 8.564 4.432 8.164 4.704 7.74C4.984 7.316 5.204 6.868 5.364 6.396C5.364 6.388 5.364 6.384 5.364 6.384C5.372 6.384 5.376 6.38 5.376 6.372C5.448 6.004 5.488 5.632 5.496 5.256C5.512 4.872 5.528 4.492 5.544 4.116C5.536 3.988 5.524 3.864 5.508 3.744C5.5 3.616 5.476 3.488 5.436 3.36C5.364 3.04 5.268 2.736 5.148 2.448C5.036 2.152 4.892 1.868 4.716 1.596ZM3.612 5.952C3.564 6.024 3.508 6.096 3.444 6.168C3.388 6.232 3.32 6.288 3.24 6.336C3.2 6.352 3.164 6.372 3.132 6.396C3.1 6.412 3.064 6.416 3.024 6.408C2.88 6.424 2.728 6.436 2.568 6.444C2.416 6.452 2.296 6.416 2.208 6.336C2.192 6.064 2.184 5.792 2.184 5.52C2.184 5.24 2.188 4.968 2.196 4.704C2.204 4.432 2.208 4.172 2.208 3.924C2.208 3.676 2.2 3.444 2.184 3.228V3.18H2.196H2.22C2.364 3.148 2.516 3.136 2.676 3.144C2.836 3.144 2.984 3.152 3.12 3.168C3.256 3.216 3.368 3.288 3.456 3.384C3.544 3.472 3.616 3.576 3.672 3.696C3.736 3.816 3.784 3.944 3.816 4.08C3.848 4.208 3.876 4.332 3.9 4.452C3.964 4.748 3.964 5.02 3.9 5.268C3.844 5.516 3.748 5.744 3.612 5.952Z" fill="white"/>
</svg>
