<svg width="279" height="279" viewBox="0 0 279 279" fill="none" xmlns="http://www.w3.org/2000/svg">
<circle cx="139.5" cy="139.5" r="139.5" fill="#F9F9F9"/>
<path d="M40.12 151.3C38.66 151.3 37.3 151.14 36.04 150.82C34.8 150.48 33.71 150 32.77 149.38C32.39 149.14 32.13 148.86 31.99 148.54C31.87 148.2 31.84 147.88 31.9 147.58C31.98 147.26 32.13 146.99 32.35 146.77C32.57 146.55 32.85 146.42 33.19 146.38C33.53 146.34 33.9 146.44 34.3 146.68C34.82 146.98 35.37 147.23 35.95 147.43C36.53 147.63 37.14 147.78 37.78 147.88C38.44 147.98 39.12 148.03 39.82 148.03C40.94 148.03 41.85 147.91 42.55 147.67C43.27 147.43 43.8 147.07 44.14 146.59C44.5 146.11 44.68 145.5 44.68 144.76C44.68 143.76 44.36 143.02 43.72 142.54C43.08 142.04 42.08 141.79 40.72 141.79H36.97C36.45 141.79 36.05 141.66 35.77 141.4C35.49 141.14 35.35 140.76 35.35 140.26C35.35 139.78 35.49 139.41 35.77 139.15C36.05 138.89 36.45 138.76 36.97 138.76H40.21C41.53 138.76 42.51 138.52 43.15 138.04C43.81 137.56 44.14 136.83 44.14 135.85C44.14 135.23 43.98 134.69 43.66 134.23C43.36 133.77 42.89 133.42 42.25 133.18C41.63 132.92 40.83 132.79 39.85 132.79C38.99 132.79 38.12 132.9 37.24 133.12C36.38 133.32 35.59 133.62 34.87 134.02C34.45 134.26 34.07 134.36 33.73 134.32C33.41 134.26 33.14 134.12 32.92 133.9C32.72 133.66 32.59 133.38 32.53 133.06C32.47 132.74 32.51 132.42 32.65 132.1C32.79 131.78 33.04 131.51 33.4 131.29C34.36 130.71 35.43 130.28 36.61 130C37.81 129.7 39.03 129.55 40.27 129.55C41.99 129.55 43.41 129.8 44.53 130.3C45.67 130.78 46.52 131.46 47.08 132.34C47.66 133.2 47.95 134.2 47.95 135.34C47.95 136.62 47.57 137.7 46.81 138.58C46.07 139.46 45.07 140.05 43.81 140.35V139.9C45.27 140.12 46.41 140.68 47.23 141.58C48.05 142.48 48.46 143.65 48.46 145.09C48.46 146.33 48.16 147.42 47.56 148.36C46.96 149.3 46.04 150.03 44.8 150.55C43.58 151.05 42.02 151.3 40.12 151.3ZM52.27 151.24C51.79 151.24 51.4 151.13 51.1 150.91C50.82 150.69 50.65 150.4 50.59 150.04C50.53 149.66 50.6 149.24 50.8 148.78L58.72 131.23C58.98 130.65 59.29 130.24 59.65 130C60.03 129.74 60.46 129.61 60.94 129.61C61.4 129.61 61.81 129.74 62.17 130C62.55 130.24 62.87 130.65 63.13 131.23L71.08 148.78C71.3 149.24 71.38 149.66 71.32 150.04C71.26 150.42 71.09 150.72 70.81 150.94C70.53 151.14 70.16 151.24 69.7 151.24C69.14 151.24 68.7 151.11 68.38 150.85C68.08 150.57 67.81 150.15 67.57 149.59L65.62 145.06L67.24 146.11H54.58L56.2 145.06L54.28 149.59C54.02 150.17 53.75 150.59 53.47 150.85C53.19 151.11 52.79 151.24 52.27 151.24ZM60.88 134.02L56.68 144.01L55.9 143.05H65.92L65.17 144.01L60.94 134.02H60.88ZM76.3042 151.24C75.6842 151.24 75.2042 151.07 74.8642 150.73C74.5442 150.37 74.3842 149.88 74.3842 149.26V131.89C74.3842 131.23 74.5542 130.73 74.8942 130.39C75.2542 130.03 75.7642 129.85 76.4242 129.85H90.7342C91.3942 129.85 91.8942 130.03 92.2342 130.39C92.5942 130.73 92.7742 131.23 92.7742 131.89V149.26C92.7742 149.88 92.6042 150.37 92.2642 150.73C91.9442 151.07 91.4742 151.24 90.8542 151.24C90.2342 151.24 89.7542 151.07 89.4142 150.73C89.0942 150.37 88.9342 149.88 88.9342 149.26V133.06H78.2242V149.26C78.2242 149.88 78.0642 150.37 77.7442 150.73C77.4242 151.07 76.9442 151.24 76.3042 151.24ZM98.973 151.24C98.713 151.24 98.483 151.2 98.283 151.12C98.083 151.04 97.913 150.92 97.773 150.76C97.633 150.58 97.523 150.37 97.443 150.13C97.383 149.89 97.353 149.61 97.353 149.29V131.44C97.353 130.86 97.503 130.41 97.803 130.09C98.123 129.77 98.573 129.61 99.153 129.61C99.733 129.61 100.173 129.77 100.473 130.09C100.773 130.41 100.923 130.86 100.923 131.44V145.63H100.233L111.633 130.72C111.933 130.32 112.223 130.04 112.503 129.88C112.783 129.7 113.153 129.61 113.613 129.61C113.933 129.61 114.203 129.68 114.423 129.82C114.663 129.96 114.843 130.17 114.963 130.45C115.103 130.71 115.173 131.02 115.173 131.38V149.38C115.173 149.98 115.023 150.44 114.723 150.76C114.423 151.08 113.983 151.24 113.403 151.24C112.823 151.24 112.373 151.08 112.053 150.76C111.753 150.44 111.603 149.98 111.603 149.38V135.19H112.263L100.893 150.1C100.573 150.5 100.283 150.79 100.023 150.97C99.783 151.15 99.433 151.24 98.973 151.24ZM129.634 151.3C127.434 151.3 125.544 150.86 123.964 149.98C122.404 149.08 121.204 147.82 120.364 146.2C119.524 144.56 119.104 142.63 119.104 140.41C119.104 138.75 119.344 137.26 119.824 135.94C120.304 134.6 120.994 133.46 121.894 132.52C122.794 131.56 123.894 130.83 125.194 130.33C126.514 129.81 127.994 129.55 129.634 129.55C130.734 129.55 131.814 129.69 132.874 129.97C133.934 130.25 134.864 130.65 135.664 131.17C136.084 131.43 136.364 131.75 136.504 132.13C136.644 132.49 136.674 132.85 136.594 133.21C136.514 133.55 136.344 133.84 136.084 134.08C135.844 134.32 135.534 134.46 135.154 134.5C134.794 134.52 134.394 134.39 133.954 134.11C133.334 133.71 132.664 133.42 131.944 133.24C131.224 133.06 130.494 132.97 129.754 132.97C128.334 132.97 127.134 133.26 126.154 133.84C125.174 134.42 124.434 135.26 123.934 136.36C123.434 137.46 123.184 138.81 123.184 140.41C123.184 141.99 123.434 143.34 123.934 144.46C124.434 145.58 125.174 146.43 126.154 147.01C127.134 147.59 128.334 147.88 129.754 147.88C130.514 147.88 131.264 147.79 132.004 147.61C132.744 147.41 133.444 147.11 134.104 146.71C134.544 146.45 134.934 146.34 135.274 146.38C135.634 146.4 135.934 146.52 136.174 146.74C136.414 146.96 136.574 147.24 136.654 147.58C136.734 147.9 136.714 148.24 136.594 148.6C136.474 148.94 136.234 149.24 135.874 149.5C135.074 150.08 134.114 150.53 132.994 150.85C131.894 151.15 130.774 151.3 129.634 151.3ZM139.956 151.24C139.476 151.24 139.086 151.13 138.786 150.91C138.506 150.69 138.336 150.4 138.276 150.04C138.216 149.66 138.286 149.24 138.486 148.78L146.406 131.23C146.666 130.65 146.976 130.24 147.336 130C147.716 129.74 148.146 129.61 148.626 129.61C149.086 129.61 149.496 129.74 149.856 130C150.236 130.24 150.556 130.65 150.816 131.23L158.766 148.78C158.986 149.24 159.066 149.66 159.006 150.04C158.946 150.42 158.776 150.72 158.496 150.94C158.216 151.14 157.846 151.24 157.386 151.24C156.826 151.24 156.386 151.11 156.066 150.85C155.766 150.57 155.496 150.15 155.256 149.59L153.306 145.06L154.926 146.11H142.266L143.886 145.06L141.966 149.59C141.706 150.17 141.436 150.59 141.156 150.85C140.876 151.11 140.476 151.24 139.956 151.24ZM148.566 134.02L144.366 144.01L143.586 143.05H153.606L152.856 144.01L148.626 134.02H148.566ZM166.541 151.24C165.921 151.24 165.441 151.07 165.101 150.73C164.781 150.37 164.621 149.88 164.621 149.26V133.06H158.771C158.251 133.06 157.841 132.92 157.541 132.64C157.261 132.34 157.121 131.94 157.121 131.44C157.121 130.92 157.261 130.53 157.541 130.27C157.841 129.99 158.251 129.85 158.771 129.85H174.311C174.831 129.85 175.231 129.99 175.511 130.27C175.811 130.53 175.961 130.92 175.961 131.44C175.961 131.94 175.811 132.34 175.511 132.64C175.231 132.92 174.831 133.06 174.311 133.06H168.461V149.26C168.461 149.88 168.301 150.37 167.981 150.73C167.661 151.07 167.181 151.24 166.541 151.24ZM180.194 151C179.534 151 179.024 150.83 178.664 150.49C178.324 150.13 178.154 149.62 178.154 148.96V131.59C178.154 130.95 178.314 130.46 178.634 130.12C178.974 129.78 179.454 129.61 180.074 129.61C180.694 129.61 181.164 129.78 181.484 130.12C181.824 130.46 181.994 130.95 181.994 131.59V138.67H187.724C189.224 138.67 190.514 138.91 191.594 139.39C192.674 139.85 193.494 140.54 194.054 141.46C194.634 142.36 194.924 143.48 194.924 144.82C194.924 146.82 194.284 148.35 193.004 149.41C191.744 150.47 189.984 151 187.724 151H180.194ZM181.994 147.94H187.244C188.604 147.94 189.604 147.69 190.244 147.19C190.884 146.67 191.204 145.88 191.204 144.82C191.204 143.76 190.884 142.98 190.244 142.48C189.604 141.98 188.604 141.73 187.244 141.73H181.994V147.94ZM208.179 151.3C205.979 151.3 204.089 150.86 202.509 149.98C200.949 149.08 199.749 147.82 198.909 146.2C198.069 144.56 197.649 142.63 197.649 140.41C197.649 138.75 197.889 137.26 198.369 135.94C198.849 134.6 199.539 133.46 200.439 132.52C201.339 131.56 202.439 130.83 203.739 130.33C205.059 129.81 206.539 129.55 208.179 129.55C209.279 129.55 210.359 129.69 211.419 129.97C212.479 130.25 213.409 130.65 214.209 131.17C214.629 131.43 214.909 131.75 215.049 132.13C215.189 132.49 215.219 132.85 215.139 133.21C215.059 133.55 214.889 133.84 214.629 134.08C214.389 134.32 214.079 134.46 213.699 134.5C213.339 134.52 212.939 134.39 212.499 134.11C211.879 133.71 211.209 133.42 210.489 133.24C209.769 133.06 209.039 132.97 208.299 132.97C206.879 132.97 205.679 133.26 204.699 133.84C203.719 134.42 202.979 135.26 202.479 136.36C201.979 137.46 201.729 138.81 201.729 140.41C201.729 141.99 201.979 143.34 202.479 144.46C202.979 145.58 203.719 146.43 204.699 147.01C205.679 147.59 206.879 147.88 208.299 147.88C209.059 147.88 209.809 147.79 210.549 147.61C211.289 147.41 211.989 147.11 212.649 146.71C213.089 146.45 213.479 146.34 213.819 146.38C214.179 146.4 214.479 146.52 214.719 146.74C214.959 146.96 215.119 147.24 215.199 147.58C215.279 147.9 215.259 148.24 215.139 148.6C215.019 148.94 214.779 149.24 214.419 149.5C213.619 150.08 212.659 150.53 211.539 150.85C210.439 151.15 209.319 151.3 208.179 151.3ZM232.86 151.24C232.24 151.24 231.76 151.07 231.42 150.73C231.1 150.37 230.94 149.88 230.94 149.26V142.54H228.36C227.88 142.54 227.45 142.59 227.07 142.69C226.69 142.79 226.35 142.96 226.05 143.2C225.75 143.44 225.48 143.79 225.24 144.25L222.06 150.07C221.8 150.55 221.48 150.87 221.1 151.03C220.72 151.21 220.34 151.26 219.96 151.18C219.58 151.12 219.25 150.96 218.97 150.7C218.69 150.44 218.51 150.11 218.43 149.71C218.37 149.31 218.47 148.87 218.73 148.39L220.86 144.49C221.3 143.67 221.83 143.05 222.45 142.63C223.07 142.21 223.79 142 224.61 142H225.63L225.57 142.45C223.27 142.45 221.48 141.9 220.2 140.8C218.94 139.68 218.31 138.14 218.31 136.18C218.31 134.84 218.59 133.7 219.15 132.76C219.71 131.82 220.53 131.1 221.61 130.6C222.71 130.1 224.03 129.85 225.57 129.85H232.74C233.4 129.85 233.9 130.03 234.24 130.39C234.6 130.73 234.78 131.23 234.78 131.89V149.26C234.78 149.88 234.61 150.37 234.27 150.73C233.95 151.07 233.48 151.24 232.86 151.24ZM226.23 139.69H230.94V132.88H226.23C224.85 132.88 223.8 133.17 223.08 133.75C222.38 134.31 222.03 135.15 222.03 136.27C222.03 137.41 222.38 138.27 223.08 138.85C223.8 139.41 224.85 139.69 226.23 139.69Z" fill="black"/>
</svg>
