<svg width="530" height="518" viewBox="0 0 530 518" fill="none" xmlns="http://www.w3.org/2000/svg">
<path d="M168.84 231.982L177.716 202.919L195.343 208.488L338.246 202.919L348.192 217.45L338.938 236.942L339.127 294.981L187.096 314.124L179.101 309.686L177.716 297.069L186.907 302.638L200.694 300.811L201.26 229.458L192.888 228.675L184.767 238.421L168.84 231.982Z" fill="#9DD3CC"/>
<path fill-rule="evenodd" clip-rule="evenodd" d="M178.031 241.466V243.12C177.968 244.512 178.408 244.599 179.101 243.903C179.604 243.381 180.171 242.859 180.675 242.25C181.241 241.553 181.682 240.77 182.248 240.074C181.619 239.726 180.926 239.465 180.297 239.117C177.905 238.073 178.031 237.725 178.031 241.466V241.466ZM341.771 267.658C341.582 268.006 341.33 270.616 341.645 271.4C342.967 274.706 345.107 276.795 347.563 278.274C347.877 278.448 348.192 278.448 348.507 278.535C348.381 278.1 348.381 277.578 348.192 277.317C346.807 274.967 345.422 272.705 344.037 270.442C343.408 269.485 342.589 268.702 341.771 267.658V267.658ZM173.372 243.207C173.435 243.816 173.435 244.512 173.372 245.121C173.372 245.817 173.246 246.513 173.309 247.209C173.372 247.645 173.498 248.254 173.75 248.341C174.379 248.689 176.079 247.122 176.079 246.078C176.142 243.381 176.142 240.596 176.016 237.899C175.953 236.594 175.072 236.768 174.379 236.594C173.561 236.42 173.624 237.29 173.624 237.899C173.498 239.639 173.435 241.379 173.372 243.207V243.207ZM390.371 287.584C390.748 287.497 391.252 287.41 391.756 287.323C393.392 286.975 393.518 286.975 393.203 284.713C392.7 281.232 392.133 277.752 391.567 274.271C391.504 273.836 391 273.227 390.811 273.314C389.804 273.488 388.797 273.749 387.852 274.097C387.223 274.358 387.034 274.967 387.16 275.837C387.475 278.796 387.664 281.841 387.978 284.8C388.104 287.149 388.482 287.584 390.371 287.584V287.584ZM179.73 296.634C177.338 295.503 178.157 298.287 178.345 299.07C178.471 299.679 178.849 300.289 179.227 300.724C180.234 302.116 181.304 303.334 182.311 304.726C182.563 305.074 182.941 305.509 182.878 305.858C182.815 306.641 182.311 308.642 181.241 307.598C180.549 307.076 179.919 306.293 179.227 305.771C179.101 305.683 178.471 306.206 178.471 306.206C178.849 307.946 178.975 310.121 179.856 311.165C181.052 312.645 182.752 313.341 184.263 314.211C185.081 314.646 185.648 314.124 185.585 312.732C185.585 311.165 185.9 303.856 185.837 301.42C185.711 299.07 182.123 297.765 179.73 296.634V296.634ZM398.429 286.975C399.688 286.888 400.947 286.801 402.206 286.627C403.024 286.54 403.654 286.192 403.528 284.887C403.213 281.319 402.961 277.839 402.52 274.271C402.332 272.792 401.45 272.096 400.38 272.183C398.429 272.27 396.54 272.531 394.588 272.705C394.337 272.705 393.833 273.314 393.833 273.662C393.833 275.141 393.896 276.708 394.148 278.187C394.525 280.449 395.155 282.625 395.47 284.8C395.847 287.062 395.722 287.062 397.421 286.975H398.429ZM371.548 337.705C371.737 337.705 371.925 337.705 372.177 337.618C373.688 337.357 373.877 336.922 373.499 335.008C373.436 334.659 373.436 334.311 373.373 333.963C372.933 331.353 372.555 328.655 371.988 326.045C371.862 325.436 370.981 324.566 370.54 324.653C368.526 325.001 366.511 325.436 364.623 326.219C362.545 327.089 362.545 327.35 363.301 330.135C364.056 333.006 364.308 335.53 365.126 336.661C366.071 338.053 370.918 337.705 371.548 337.705V337.705ZM171.232 267.919C171.232 264.438 171.232 261.045 171.232 257.564C171.232 257.216 171.043 256.868 170.917 256.52C170.665 256.694 170.413 256.694 170.224 256.955C169.406 257.912 168.525 258.956 167.769 260.001C167.077 261.045 166.636 262.176 166.762 263.742C167.203 269.137 167.329 274.619 167.832 280.101C168.147 283.93 168.651 287.845 171.798 289.499C172.113 289.673 172.491 289.76 172.806 289.847C172.806 289.412 172.806 288.89 172.743 288.455C172.365 285.844 171.798 283.234 171.609 280.623C171.295 276.533 171.232 267.919 171.232 267.919V267.919ZM178.157 135.743C178.975 135.743 179.793 135.656 180.612 135.656C180.864 135.656 181.115 135.743 181.367 135.656C183.067 134.786 183.13 135.395 183.13 132.524C183.13 130.435 183.13 128.347 183.13 126.172C183.13 119.472 183.13 112.684 183.13 105.984C183.13 105.027 183.193 103.983 183.193 103.026C183.193 102.678 183.004 102.243 182.941 101.894C182.752 102.069 182.5 102.156 182.311 102.417C181.493 103.461 180.675 104.505 179.856 105.636C178.912 106.941 178.471 108.421 178.534 110.422C178.597 113.729 178.597 117.035 178.471 120.342C178.345 124.257 178.157 134.612 178.157 135.743V135.743ZM348.129 255.824C348.255 255.824 347.248 242.859 346.492 236.42C346.241 234.418 345.737 232.504 345.296 230.59C345.17 229.98 344.856 229.197 344.352 230.067C342.904 232.504 341.33 234.853 341.33 238.334C341.33 245.469 341.267 252.691 341.33 259.827C341.33 261.132 341.771 262.611 342.338 263.568C344.037 266.353 345.926 268.876 347.752 271.574C347.877 271.835 348.192 271.922 348.381 272.009C348.507 271.748 348.318 260.958 348.129 255.824V255.824ZM182.878 145.837H182.815C182.815 143.923 182.815 142.008 182.815 140.181C182.815 139.746 182.5 138.876 182.374 138.876C181.115 139.05 179.793 139.05 178.66 139.659C177.59 140.181 177.968 141.834 177.968 143.053C178.031 151.232 178.157 159.324 178.219 167.504C178.282 173.247 178.408 178.99 178.534 184.82C178.534 185.168 178.597 185.516 178.597 185.864C178.723 191.172 178.912 196.567 178.975 201.875C178.975 203.093 181.052 205.268 181.808 204.746C181.997 204.659 182.123 204.224 182.186 203.963C182.563 202.223 182.815 200.482 182.5 198.655C181.682 193.869 182.437 188.996 182.311 184.211C182.248 180.643 182.437 177.075 182.437 173.508C182.437 168.983 182.186 164.371 182.248 159.846C182.374 155.061 182.626 150.449 182.878 145.837V145.837ZM221.594 142.879C221.72 145.576 221.783 148.186 221.846 150.884C221.909 152.015 222.161 152.624 223.105 152.711C227.7 153.146 232.296 152.798 236.892 152.015C238.214 151.754 238.465 151.232 238.465 149.405C238.465 147.751 238.528 146.185 238.528 144.532C238.591 140.703 238.654 136.874 237.521 133.22C237.08 131.828 236.514 131.219 235.444 131.393C233.114 131.828 230.785 132.089 228.519 132.698C226.693 133.133 224.931 133.655 223.168 134.438C221.657 135.134 221.342 136.004 221.468 138.093C221.594 139.659 221.657 142.879 221.594 142.879V142.879ZM291.849 139.833C291.661 136.874 291.472 133.829 291.283 130.783C291.157 128.956 290.464 128.173 289.142 128.26C287.38 128.347 285.554 128.434 283.791 128.608C280.707 128.956 277.622 129.478 274.537 130C273.215 130.261 272.46 131.219 272.397 132.785C272.271 137.397 272.649 141.834 273.341 146.359C273.53 147.49 274.034 147.838 274.915 147.838C279.007 147.577 283.099 147.403 287.254 147.229C288.387 147.142 289.52 147.229 290.59 147.055C291.472 146.968 291.975 146.533 291.849 145.054C291.786 143.314 291.849 141.573 291.849 139.833V139.833ZM192.321 289.238C192.195 289.238 192.573 296.112 192.95 299.505C193.013 300.202 193.643 301.333 194.084 301.42C195.657 301.681 197.231 301.594 198.805 301.594C199.623 301.594 200.001 300.985 199.938 299.853C199.875 298.722 200.001 297.591 199.938 296.46C199.749 290.717 199.498 284.974 199.435 279.231C199.372 274.967 199.561 270.703 199.561 266.353C199.561 260.61 199.435 254.867 199.435 249.124C199.435 244.077 199.561 239.03 199.623 233.983C199.623 233.461 199.686 232.852 199.561 232.33C199.498 231.982 199.183 231.46 198.931 231.373C197.924 231.199 196.916 231.025 195.909 231.112C194.965 231.199 194.21 231.808 194.084 233.2C193.769 236.594 193.517 240.074 193.391 243.468C193.265 247.645 193.58 251.908 193.202 256.085C192.51 264.003 192.447 271.922 192.321 279.84V289.238ZM173.687 273.314C173.687 274.445 174.82 284.974 175.387 289.064C175.89 292.631 175.953 292.631 178.534 293.327C178.912 293.414 179.353 293.414 179.73 293.588C180.549 293.936 181.43 294.198 182.186 294.633C184.452 296.025 186.592 297.591 188.859 298.983C190.118 299.766 190.181 299.592 190.181 297.591C190.181 294.807 190.118 292.022 190.181 289.151C190.243 284.713 190.369 280.275 190.495 275.924C190.621 271.139 190.684 266.266 190.873 261.48C191.062 256.694 191.377 251.995 191.565 247.209C191.691 243.294 191.754 239.378 191.754 235.375C191.754 234.94 191.628 234.505 191.565 234.07C191.251 234.244 190.873 234.331 190.684 234.592C188.355 237.203 186.089 239.987 183.696 242.511C180.864 245.469 177.968 248.341 175.072 251.125C174.065 252.082 173.561 253.388 173.498 255.041C173.435 256.955 173.372 258.869 173.435 260.697C173.498 264.873 173.687 273.314 173.687 273.314ZM184.955 126.694C184.955 128.695 185.018 130.609 184.955 132.611C184.892 135.917 184.83 135.743 187.285 136.178C190.306 136.787 193.265 137.658 196.287 138.528C199.183 139.398 202.079 140.529 205.037 141.225C208.311 142.008 211.584 142.443 214.858 143.053C215.865 143.227 216.873 143.488 217.88 143.575C219.517 143.662 219.642 143.488 219.517 141.225C219.454 139.659 219.328 138.18 219.139 136.613C218.824 133.568 219.013 133.133 221.09 132.263C221.216 132.176 221.405 132.176 221.531 132.176C224.805 131.393 228.078 130.435 231.415 129.739C233.492 129.304 235.57 129.13 237.647 128.869C238.654 128.782 239.158 129.304 239.661 130.783C240.417 132.959 240.354 135.134 240.606 137.31C240.858 139.485 240.983 139.833 242.62 139.833C247.09 139.746 257.414 139.572 258.17 139.485C261.947 139.05 265.724 138.615 269.564 138.354C270.32 138.267 270.571 138.093 270.508 137.049C270.508 134.873 270.571 132.698 270.571 130.522C270.571 129.043 271.075 128.347 272.082 128.173C272.838 128.086 285.743 126.085 291.472 125.737C292.227 125.65 292.794 125.998 292.983 127.129C293.234 128.782 293.549 130.435 293.549 132.089C293.612 136.178 293.675 136.352 296.508 135.308C299.404 134.264 302.3 133.133 305.195 132.089C309.098 130.696 313.064 129.478 317.031 127.912C322.382 125.824 327.733 123.561 333.335 122.604C335.098 122.343 335.224 122.082 335.161 119.646C335.035 113.642 334.909 107.724 334.783 101.72C334.657 97.6308 334.468 93.6281 334.406 89.5384C334.343 87.7981 333.776 87.45 332.706 87.45C327.544 87.45 322.382 87.276 317.219 87.45C310.043 87.711 302.929 88.3202 295.752 88.7552C293.927 88.8422 292.101 89.0163 290.276 89.1033C288.45 89.1903 286.624 89.1903 284.799 89.3643C281.021 89.7124 277.307 90.1475 273.593 90.4085C270.634 90.5825 267.613 90.4085 264.654 90.6696C259.555 91.0176 254.455 91.6267 249.293 92.0618C244.194 92.4969 239.032 92.8449 233.933 93.193C228.204 93.6281 222.475 94.1502 216.747 94.6722C213.284 95.0203 209.885 95.6294 206.485 96.1515C202.519 96.7606 198.616 97.3697 194.65 98.0658C192.195 98.5009 189.74 98.936 187.285 99.4581C186.152 99.7191 185.333 100.415 185.459 102.417C185.522 103.809 185.333 105.201 185.207 106.593C185.081 108.595 184.767 110.683 184.83 112.684C184.704 117.47 185.018 126.694 184.955 126.694V126.694ZM243.942 142.617C241.235 142.879 240.354 144.271 240.669 147.925C240.732 148.709 240.732 149.492 240.921 150.188C241.487 152.189 240.48 153.146 239.599 153.929C239.095 154.452 238.277 154.626 237.584 154.626C232.044 154.8 226.567 154.974 221.09 156.105C219.768 156.366 219.013 155.235 219.139 153.407C219.265 152.189 219.328 150.884 219.328 149.666C219.391 147.316 219.328 147.316 217.628 146.881C215.928 146.446 214.229 146.011 212.529 145.576C211.018 145.228 209.57 144.793 208.059 144.619C204.66 144.271 201.197 144.184 197.987 142.443C194.272 140.529 190.432 139.659 186.592 138.963C185.081 138.615 185.018 138.702 184.955 140.79C184.767 146.794 184.515 152.711 184.452 158.715C184.389 163.153 184.389 167.591 184.452 172.029C184.578 182.557 184.767 193.086 185.018 203.615C185.018 204.659 184.892 206.051 185.27 206.66C185.711 207.357 186.718 207.27 187.474 207.444C187.599 207.444 187.662 207.531 187.788 207.531C190.055 207.879 192.321 208.488 194.587 208.488C198.805 208.488 203.023 208.14 207.241 207.966C208.626 207.879 209.948 208.227 211.333 208.227C215.551 208.14 219.768 207.966 223.986 207.792C228.078 207.618 232.17 207.444 236.262 207.183C239.976 206.922 243.69 206.399 247.405 206.399C251.811 206.399 256.218 206.922 260.562 207.183C263.835 207.357 267.046 207.618 270.32 207.618C274.223 207.705 278.126 207.705 282.029 207.444C286.876 207.183 291.786 206.66 296.634 206.225C302.425 205.703 308.217 205.007 313.946 204.398C317.723 203.963 321.563 203.441 325.34 203.006C328.74 202.571 332.202 202.136 335.602 201.614C337.112 201.353 337.175 200.917 337.112 198.829C336.924 192.042 336.735 185.168 336.609 178.381C336.483 172.377 336.609 166.286 336.483 160.282C336.42 156.192 336.042 148.099 336.042 148.099C335.853 143.227 335.728 138.267 335.539 133.394C335.476 131.393 335.35 129.304 335.287 127.303C335.224 125.911 334.972 125.214 333.713 125.389C328.74 125.824 324.018 127.999 319.297 129.652C315.394 131.044 311.491 132.785 307.525 134.09C303.118 135.482 298.837 137.484 294.619 139.746C293.675 140.268 293.549 140.964 293.675 142.182C293.864 144.01 294.053 145.837 294.116 147.577C294.116 148.186 293.738 148.883 293.486 149.405C292.668 150.884 282.218 150.449 278.063 150.71C276.615 150.797 272.334 151.145 272.019 150.797C271.579 150.275 271.39 149.231 271.264 148.36C271.012 146.533 270.823 144.793 270.697 142.966C270.634 141.921 270.445 141.399 269.564 141.747C269.123 141.921 268.683 141.747 268.179 141.747C265.787 141.66 247.656 142.269 243.942 142.617V142.617ZM202.205 298.809V301.159C202.205 303.508 202.205 303.421 200.568 303.595C198.05 303.856 195.532 304.291 192.95 304.465C192.006 304.552 191.062 304.03 190.181 303.595C189.677 303.421 189.299 302.899 188.859 302.551C188.166 302.029 187.599 301.942 187.537 303.421C187.411 306.989 187.222 310.469 187.159 314.037C187.096 316.212 187.411 316.473 188.984 316.299C191.817 316.038 194.65 315.777 197.483 315.603C201.008 315.342 204.597 315.255 208.122 314.733C212.844 314.037 217.502 312.906 222.161 312.123C228.393 311.078 234.688 310.121 240.921 309.077C247.971 307.772 255.022 306.293 262.073 305.074C266.039 304.378 270.005 303.856 273.971 303.247C278.629 302.551 283.225 301.855 287.883 301.159C288.639 301.072 289.394 300.985 290.15 300.898C292.479 300.463 294.745 299.94 297.074 299.592C301.67 298.896 306.266 298.2 310.861 297.591C313.379 297.243 315.897 297.069 318.478 296.808C321.311 296.547 324.144 296.46 326.977 296.199C330.565 295.851 334.154 295.329 337.742 295.068C340.071 294.894 340.512 294.459 340.197 291.152C339.882 288.193 339.316 261.741 339.316 251.473C339.316 246.6 339.127 241.64 339.001 236.768C338.938 234.505 339.316 232.765 340.386 231.025C341.582 229.197 345.989 221.801 346.618 220.583C347.751 218.495 347.689 217.624 346.367 215.884C343.974 212.839 341.897 209.271 339.064 206.748C337.301 205.181 335.602 204.746 333.587 205.007C331.006 205.442 328.425 205.616 325.844 205.79C322.633 206.138 305.825 208.488 300.663 208.836C298.271 209.01 295.878 209.01 293.486 209.184C289.142 209.532 284.799 210.141 280.392 210.228C274.286 210.315 268.242 210.141 262.136 209.967C258.547 209.88 254.959 209.445 251.371 209.358C247.531 209.271 243.69 209.358 239.85 209.532C236.892 209.619 233.996 210.054 231.037 210.141C228.141 210.315 225.245 210.228 222.349 210.315C218.069 210.489 213.851 210.663 209.57 210.75C207.681 210.837 205.793 210.837 203.967 210.837C200.19 210.924 196.35 211.098 192.573 211.011C190.432 211.011 188.355 210.576 186.214 210.315C185.774 210.228 185.27 210.228 184.893 209.967C182.5 208.401 180.171 206.835 177.779 205.181C176.646 204.398 176.331 204.485 175.827 206.051C174.316 211.011 172.743 215.971 171.295 221.018C170.728 222.932 170.287 224.847 169.973 226.848C169.721 228.24 169.973 229.719 171.043 230.503C173.12 231.895 175.198 233.374 177.401 234.331C179.667 235.375 182.123 235.81 184.515 236.507C184.893 236.594 185.396 236.681 185.648 236.333C187.851 234.157 189.992 231.808 192.258 229.545C193.139 228.675 194.147 227.283 195.091 227.283C196.916 227.37 198.742 228.153 200.568 228.849C201.008 229.023 201.449 230.155 201.512 230.938C201.638 232.765 201.512 234.592 201.512 236.42C201.449 240.161 201.323 243.99 201.386 247.732C201.386 254.171 201.575 260.61 201.575 267.136C201.638 272.966 201.575 278.796 201.701 284.626C201.638 289.499 201.953 293.936 202.205 298.809V298.809ZM329.621 299.592C321.059 299.592 312.561 300.028 304.062 301.681C301.166 302.29 298.208 302.377 295.312 302.812C293.423 303.073 291.472 303.595 289.583 303.856C288.639 304.03 288.324 304.726 288.387 306.032C288.513 309.077 288.576 312.21 288.639 315.255C288.765 319.693 288.828 324.218 288.954 328.655C289.017 331.092 289.205 333.528 289.268 336.052C289.394 344.753 289.457 353.455 289.583 362.156C289.646 367.812 289.772 373.555 289.898 379.211C289.961 382.692 290.024 386.259 290.15 389.74C290.213 391.393 290.464 392.872 291.535 394.004C292.164 394.613 292.353 395.918 292.857 396.788C294.808 399.921 296.886 402.879 298.9 405.925C299.026 406.099 299.215 406.186 299.215 406.36C299.278 407.056 299.53 407.926 299.341 408.361C298.963 409.231 298.396 409.144 297.83 408.361C295.627 405.142 293.486 401.922 291.22 398.789C290.716 398.093 290.024 397.571 289.331 397.223C288.45 396.788 288.198 396.092 288.135 394.874C288.072 389.131 287.946 383.388 287.883 377.645C287.883 375.295 288.072 373.033 288.009 370.684C287.883 359.372 287.82 348.06 287.632 336.748C287.569 331.875 287.317 327.089 287.128 322.216C287.002 318.562 286.939 314.907 286.813 311.252C286.75 309.512 286.498 307.772 286.247 306.032C286.121 304.813 285.617 304.465 284.736 304.552C281.399 305.074 278.063 305.509 274.726 305.945C271.453 306.38 268.179 306.815 264.906 307.424C260.625 308.207 256.344 309.077 252.063 309.86C248.16 310.556 244.194 311.252 240.291 311.862C237.71 312.297 235.192 312.558 232.611 312.906C231.604 313.08 231.1 313.863 231.163 315.342C231.352 319.345 231.478 323.348 231.604 327.35C231.792 333.006 231.981 338.749 232.107 344.405C232.233 351.801 232.233 359.111 232.485 366.507C232.611 369.901 233.24 373.294 233.555 376.688C234.122 382.953 234.562 389.218 235.192 395.483C235.444 398.18 236.073 400.791 236.262 403.575C236.325 404.532 236.01 405.838 235.507 406.621C233.303 410.362 230.974 414.017 228.708 417.672C228.204 418.455 227.575 419.325 226.882 418.455C226.127 417.585 226.63 416.367 227.134 415.67C228.519 413.495 229.967 411.32 231.478 409.231C233.177 406.969 234.185 404.707 233.744 401.052C232.863 393.917 232.611 386.694 231.604 379.646C230.596 372.685 230.281 365.637 230.03 358.589C229.841 354.151 230.03 349.713 229.967 345.362C229.841 338.662 229.715 332.049 229.526 325.349C229.463 322.303 229.274 319.171 229.148 316.125C229.085 314.211 228.771 313.95 227.449 314.211C221.468 315.429 215.488 316.821 209.507 317.866C205.919 318.475 202.205 318.475 198.553 318.823C195.532 319.084 192.51 319.432 189.488 319.954C187.788 320.215 186.403 319.78 185.081 318.301C184.515 317.692 183.759 317.344 183.067 316.908C181.178 315.69 179.29 314.559 177.527 313.08C177.023 312.732 176.897 311.252 176.772 310.295C176.457 307.337 176.457 304.291 175.953 301.42C175.513 299.07 174.442 296.895 173.624 294.633C173.435 294.198 173.057 293.849 172.68 293.675C171.421 292.805 170.036 292.196 168.84 291.239C168.273 290.804 167.706 289.847 167.643 289.064C166.762 280.971 165.188 263.307 164.811 261.045C164.433 258.782 168.651 255.476 170.539 253.213C170.98 252.691 171.169 251.473 171.232 250.603C171.358 246.078 171.421 241.466 171.546 236.855C171.546 235.723 171.358 234.94 170.602 234.505C169.91 234.07 169.217 233.635 168.525 233.287C167.077 232.591 166.636 231.286 167.14 229.371C168.21 225.369 169.217 221.279 170.413 217.363C171.421 213.97 172.68 210.75 173.75 207.444C174.505 205.094 175.324 202.832 176.016 200.482C176.268 199.699 176.331 198.829 176.331 198.046C176.331 186.386 176.331 174.639 176.268 162.979C176.268 159.933 175.89 156.801 175.827 153.755C175.764 152.015 176.016 150.275 176.016 148.534C176.016 142.443 175.89 136.439 175.953 130.348C176.016 125.04 176.331 119.733 176.457 114.338C176.52 112.336 176.331 110.422 176.394 108.421C176.394 107.724 176.52 106.767 176.835 106.332C178.282 104.244 179.856 102.156 181.367 100.154C182.626 98.5009 184.263 97.7178 185.9 97.3697C192.069 96.2385 198.301 95.1943 204.534 94.3242C210.892 93.367 217.25 92.4969 223.671 91.8878C228.141 91.4527 232.611 91.5397 237.017 91.2787C240.102 91.1046 243.187 90.6696 246.272 90.4085C251.119 89.9734 256.029 89.3643 260.877 89.1033C266.165 88.7552 271.453 88.7552 276.741 88.4072C280.518 88.0591 284.295 87.276 288.072 86.7539C289.331 86.5799 290.59 86.4058 291.849 86.4058C298.963 86.0578 306.077 85.7967 313.19 85.5357C317.597 85.3616 322.004 85.3616 326.473 85.1006C328.614 85.0136 330.817 84.4045 332.958 84.4045C334.028 84.4045 335.161 85.1006 336.231 85.7097C336.483 85.8837 336.672 86.8409 336.609 87.363C336.042 93.7151 336.546 99.9802 336.861 106.245C337.112 111.118 336.798 116.165 337.49 120.951C337.931 124.17 337.175 127.129 337.553 130.261C337.931 133.394 337.805 136.526 337.931 139.746C338.12 146.881 338.372 154.103 338.56 161.239C338.749 167.591 338.938 173.856 339.064 180.208C339.19 186.038 339.253 191.868 339.442 197.698C339.568 200.917 340.323 203.789 342.086 206.051C344.163 208.749 346.178 211.62 348.255 214.405C348.696 215.014 351.466 219.452 350.207 221.105C349.451 222.062 348.759 223.106 348.066 224.063C346.807 225.63 346.807 227.457 347.374 229.545C347.94 231.895 348.192 234.418 348.507 236.942C349.011 240.596 349.577 244.251 349.892 247.906C350.207 251.56 350.458 255.302 350.458 259.043C350.458 265.135 350.647 271.139 351.592 277.056C352.095 280.188 353.354 281.928 355.621 282.973C360.405 285.061 365.252 284.539 370.1 283.843C374.066 283.321 378.095 282.538 382.061 281.928C383.005 281.754 383.949 281.493 384.894 281.145C385.146 281.058 385.397 280.275 385.397 279.84C385.208 278.013 385.02 276.098 384.705 274.271C384.264 271.748 384.39 271.487 386.279 271.4C391.756 271.052 397.232 270.616 402.709 270.181C404.157 270.094 404.409 270.442 404.472 272.531C404.598 275.489 404.85 278.535 405.164 281.493C405.353 283.495 405.731 285.496 405.857 287.497C405.983 289.151 405.983 290.021 404.283 289.934C399.058 289.76 393.833 289.847 388.608 290.978C386.782 291.413 386.656 291.239 386.405 288.716C385.964 284.713 385.712 284.452 382.753 284.887C378.41 285.583 374.129 286.453 369.785 286.888C366.511 287.236 357.887 286.888 356.88 286.714C356.628 286.627 356.376 286.714 356.187 286.801C356.187 287.149 360.909 300.55 362.608 307.25C363.742 311.514 365.126 315.69 366.574 319.78C366.889 320.737 367.33 321.781 368.022 321.955C369.47 322.39 371.548 321.172 372.051 321.085C373.122 320.998 373.436 322.042 373.625 323.173C374.318 326.828 375.01 330.483 375.766 334.137C376.08 335.617 376.395 337.096 376.773 338.575C377.276 340.489 376.521 340.838 375.325 340.838C374.129 340.925 373.625 341.882 373.94 343.274C374.129 343.97 375.01 348.234 373.814 348.234C372.618 348.234 372.051 343.709 371.862 342.317C371.737 341.273 371.296 341.186 370.666 341.186C369.974 341.273 369.596 341.708 369.722 342.665C369.785 343.535 369.911 344.318 370.037 345.101C370.352 346.581 370.037 347.886 369.218 347.973C368.148 348.06 367.833 346.929 367.645 345.797C367.456 344.753 367.33 343.622 367.141 342.491C367.015 341.621 366.7 341.273 365.945 341.36C363.742 341.447 363.301 340.664 362.734 337.792C362.105 334.572 361.286 331.353 360.279 328.307C359.524 325.871 359.776 324.827 361.601 324.305C361.979 324.218 362.357 323.957 362.734 323.783C364.749 322.912 364.749 322.912 363.993 320.302C361.979 313.254 359.775 306.293 357.887 299.157C356.691 294.459 354.676 290.456 352.914 286.192C352.725 285.757 352.41 285.496 352.158 285.235C352.032 285.67 351.78 286.018 351.718 286.453C351.592 287.497 351.214 288.019 350.458 287.845C349.64 287.671 349.325 286.801 349.577 285.757C350.081 284.017 349.451 283.408 348.507 282.625C346.429 281.058 344.415 279.318 342.338 277.752C342.086 277.578 341.582 277.404 341.519 277.578C341.33 277.926 341.204 278.448 341.267 278.883C341.582 282.538 341.96 286.105 342.275 289.76C342.463 291.674 342.589 293.675 342.715 295.59C342.778 296.634 342.589 297.591 341.645 297.765C337.616 298.113 333.587 298.809 329.621 299.592V299.592Z" fill="#181715"/>
<path fill-rule="evenodd" clip-rule="evenodd" d="M249.167 194.478C246.334 194.565 243.502 194.304 240.669 194.304C238.717 194.304 236.829 194.478 234.877 194.652C232.988 194.826 232.359 194.043 232.485 191.433C232.548 190.215 232.611 189.083 232.8 187.865C232.863 187.343 233.303 186.734 233.618 186.647C233.933 186.56 234.373 187.169 234.562 187.604C234.751 188.039 234.751 188.648 234.814 189.258C235.003 191.259 235.318 191.52 236.766 191.52C239.095 191.607 241.424 191.781 243.753 191.955C244.949 192.042 246.083 192.042 247.279 191.955C252.693 191.607 258.107 191.259 263.584 190.998C266.857 190.824 270.194 190.824 273.53 190.737C274.726 190.65 275.985 190.476 277.118 190.128C277.496 190.041 277.874 189.17 278.063 188.648C278.377 187.865 278.377 186.56 279.196 186.908C279.637 187.082 279.951 188.213 280.077 188.996C280.266 190.215 280.266 191.52 280.266 192.738C280.266 193.956 279.762 194.304 278.944 194.13C277.118 193.608 253.196 194.304 249.167 194.478V194.478Z" fill="#181715"/>
<path fill-rule="evenodd" clip-rule="evenodd" d="M197.231 286.801C197.168 290.108 197.042 293.414 196.979 296.634C196.979 297.243 196.854 298.026 196.602 298.374C196.287 298.809 195.657 299.244 195.217 299.157C194.902 299.07 194.461 298.2 194.398 297.678C194.272 296.112 194.335 294.459 194.398 292.892C194.587 287.584 194.839 282.276 195.028 276.969C195.154 274.358 195.343 271.835 195.469 269.224C195.532 268.18 195.846 267.223 196.602 267.484C196.979 267.571 197.42 268.702 197.483 269.398C197.609 270.616 197.357 282.189 197.231 286.801Z" fill="#181715"/>
<path fill-rule="evenodd" clip-rule="evenodd" d="M195.406 253.649C195.594 253.214 196.098 252.778 196.413 252.691C196.665 252.691 197.168 253.301 197.231 253.736C197.546 255.563 197.924 257.39 197.987 259.305C198.05 259.914 197.861 260.784 196.979 261.219C196.098 261.654 196.035 260.871 195.909 260.523C195.469 259.043 195.154 254.345 195.406 253.649V253.649Z" fill="#181715"/>
<path fill-rule="evenodd" clip-rule="evenodd" d="M197.987 246.426C197.609 247.558 196.224 247.296 195.594 245.991C194.965 244.686 195.594 240.77 196.602 240.161C196.916 239.987 197.672 240.248 197.798 240.596C198.238 241.553 198.301 245.643 197.987 246.426Z" fill="#181715"/>
<path fill-rule="evenodd" clip-rule="evenodd" d="M281.273 141.225C280.266 141.225 279.825 140.355 279.762 139.137C279.699 137.919 280.455 136.962 281.588 136.875C282.595 136.787 283.288 137.658 283.288 138.963C283.225 140.355 282.469 141.138 281.273 141.225Z" fill="#181715"/>
<path fill-rule="evenodd" clip-rule="evenodd" d="M228.645 144.445C227.512 144.271 226.882 143.575 227.197 142.53C227.449 141.747 228.204 140.877 228.771 140.79C229.4 140.703 230.156 141.573 229.967 142.705C229.841 143.923 229.211 144.445 228.645 144.445V144.445Z" fill="#181715"/>
<path fill-rule="evenodd" clip-rule="evenodd" d="M399.688 274.88C400.569 274.88 400.506 275.402 400.884 276.011C401.387 276.795 401.261 277.665 400.443 277.839C399.31 278.187 398.177 278.448 396.981 278.535C396.603 278.535 395.91 277.665 395.91 277.23C395.91 276.62 396.351 275.663 396.792 275.402C397.547 274.967 398.806 274.88 399.688 274.88V274.88Z" fill="#181715"/>
<path fill-rule="evenodd" clip-rule="evenodd" d="M401.387 282.625C401.639 282.538 401.891 281.493 401.891 280.971C401.891 280.71 401.261 280.362 400.884 280.362C399.688 280.362 398.429 280.536 397.232 280.71C396.918 280.797 396.477 281.232 396.351 281.58C396.288 281.841 396.54 282.451 396.729 282.799L401.387 282.625Z" fill="#181715"/>
<path d="M219.328 249.211C219.328 246.426 219.328 243.642 219.013 240.944C218.887 239.639 217.376 239.639 217.502 240.944C217.754 243.729 217.817 246.426 217.817 249.211C217.817 250.516 219.328 250.516 219.328 249.211Z" fill="#181715"/>
<path d="M222.664 241.031C222.664 243.642 222.727 246.252 222.979 248.863C223.105 250.168 224.616 250.168 224.49 248.863C224.238 246.165 224.238 243.468 224.175 240.857C224.742 240.77 225.308 240.596 225.875 240.422C226.819 240.161 226.441 238.16 225.497 238.421C223.86 238.856 222.224 239.117 220.587 239.204C219.579 239.204 219.579 241.379 220.587 241.292C221.279 241.118 221.972 241.118 222.664 241.031V241.031Z" fill="#181715"/>
<path d="M230.219 235.81C229.589 234.766 228.456 236.333 229.148 237.29C229.022 237.116 229.274 237.638 229.274 237.725C229.337 237.899 229.211 239.552 229.589 239.813C229.904 240.074 230.47 239.987 230.659 239.465C231.037 238.247 230.911 236.855 230.219 235.81Z" fill="#181715"/>
<path d="M237.206 245.643C236.954 244.338 236.388 243.12 235.821 241.989C235.695 241.727 234.688 240.161 234.751 239.291C234.751 238.682 235.632 238.508 236.199 238.595C237.584 238.769 237.395 236.072 236.073 236.333C234.751 236.594 234.814 236.594 233.87 237.203C232.925 237.899 233.114 239.378 233.177 239.987C233.24 240.509 233.618 241.118 233.807 241.553C234.247 242.511 234.688 243.468 235.129 244.425C235.381 245.121 235.758 245.904 235.758 246.687C235.695 246.687 235.632 246.687 235.507 246.687C234.877 246.6 234.185 246.165 233.555 245.817C232.611 245.295 232.233 247.383 233.177 247.819C234.122 248.341 235.569 249.298 236.64 248.515C237.395 247.906 237.458 246.687 237.206 245.643Z" fill="#181715"/>
<path d="M248.412 244.947C248.79 245.295 249.482 244.947 249.545 244.338C249.86 241.727 249.86 239.204 249.86 236.594C249.86 235.201 248.349 235.201 248.349 236.594C248.349 238.421 248.349 240.335 248.223 242.163C246.964 240.77 245.831 239.117 244.824 237.464C244.635 237.203 244.068 236.942 243.942 237.464C243.753 238.682 244.131 241.815 244.131 242.424C244.194 243.642 244.194 244.86 244.32 246.078C244.446 247.383 245.957 247.47 245.831 246.078C245.705 244.86 245.768 243.381 245.705 241.989C246.586 243.033 247.468 244.077 248.412 244.947V244.947Z" fill="#181715"/>
<path d="M255.274 243.816C253.7 244.425 253.952 240.944 254.455 239.117C255.4 239.987 256.47 243.294 255.274 243.816ZM254.896 236.942C254.707 236.333 254.078 235.985 253.7 236.594C252 239.117 251.811 246.687 255.526 245.817C258.61 245.121 257.162 238.421 254.896 236.942V236.942Z" fill="#181715"/>
<path d="M260.121 241.031C260.184 241.641 260.31 242.337 260.436 242.946C260.499 243.207 260.499 243.468 260.562 243.642C260.562 243.729 260.625 244.338 260.625 243.99C260.688 245.295 262.262 245.382 262.136 243.99C262.01 241.641 261.38 239.465 261.317 237.029C261.884 236.768 262.45 236.594 263.017 236.333C263.961 235.898 263.521 233.896 262.639 234.331C261.254 234.94 259.68 235.811 258.17 235.549C257.225 235.375 256.785 237.377 257.792 237.551C258.484 237.725 259.177 237.638 259.806 237.551C259.806 238.769 259.995 239.9 260.121 241.031V241.031Z" fill="#181715"/>
<path d="M272.649 240.509C273.152 239.378 273.656 238.247 274.223 237.203C274.474 238.16 274.726 239.117 275.041 240.074C274.285 240.248 273.467 240.335 272.649 240.509ZM270.886 244.599C271.138 243.99 271.453 243.381 271.704 242.685C273.026 242.511 274.411 242.337 275.733 241.902C276.048 242.772 276.363 243.642 276.678 244.512C277.181 245.73 278.503 244.599 278 243.468C276.867 240.683 276.048 237.638 275.23 234.679C275.041 233.983 274.348 233.548 273.971 234.244C272.271 237.116 271.012 240.335 269.564 243.555C268.997 244.686 270.319 245.73 270.886 244.599V244.599Z" fill="#181715"/>
<path d="M289.52 235.897C290.464 237.029 288.891 238.421 288.324 238.856C288.135 238.943 287.82 236.942 287.757 235.81C288.324 235.375 289.016 235.201 289.52 235.897V235.897ZM291.22 243.294C290.716 245.382 288.324 243.903 288.324 243.642C288.324 242.511 288.576 240.77 288.891 240.683C290.338 240.422 291.723 241.031 291.22 243.294V243.294ZM286.876 245.73C288.954 247.993 291.66 247.47 292.668 243.903C293.045 242.598 292.857 240.944 292.227 239.9C291.849 239.291 291.283 238.856 290.779 238.682C291.283 237.638 291.472 236.42 290.968 235.027C290.087 232.504 287.632 233.2 286.309 234.418C285.806 234.94 286.435 245.208 286.876 245.73Z" fill="#181715"/>
<path d="M297.956 243.642C300.096 242.163 298.9 235.897 298.585 233.548C298.396 232.243 296.949 232.765 297.137 234.07C297.326 235.375 297.452 236.594 297.578 237.899C297.641 238.769 297.893 241.118 297.2 241.815C296.508 242.511 295.878 238.856 295.815 238.334C295.564 237.029 295.375 235.636 294.682 234.592C294.053 233.548 292.982 235.027 293.612 236.072C294.808 238.073 294.619 245.904 297.956 243.642V243.642Z" fill="#181715"/>
<path d="M306.266 245.034C307.525 244.686 308.28 242.772 308.28 241.118C308.28 240.509 308.154 239.9 307.965 239.465C308.595 239.03 308.469 237.464 307.651 237.464C306.769 237.464 305.951 237.464 305.069 237.464C304.062 237.464 304.125 239.465 305.069 239.552C305.888 239.639 306.769 239.987 306.769 241.292C306.769 241.989 306.391 242.859 305.825 242.946C304.692 243.12 303.873 240.596 303.685 239.465C303.244 237.116 305.069 235.027 306.203 233.722C306.958 232.852 305.888 231.373 305.132 232.243C303.181 234.505 301.481 237.377 302.488 241.031C302.992 243.294 304.377 245.556 306.266 245.034Z" fill="#181715"/>
<path d="M218.195 268.354C218.069 267.049 216.558 266.962 216.684 268.354C216.998 271.835 217.124 275.489 217.88 278.883C218.195 280.188 219.642 279.666 219.328 278.361C218.572 275.141 218.509 271.661 218.195 268.354Z" fill="#181715"/>
<path d="M226.945 264.96C225.497 265.57 224.049 266.092 222.601 266.527C222.538 266.527 222.475 266.527 222.412 266.614C221.909 266.788 221.468 266.875 220.964 266.962C220.02 267.136 220.398 269.224 221.342 268.963C221.594 268.876 221.846 268.789 222.161 268.789C222.916 271.313 222.979 274.271 223.294 276.882C223.42 278.187 224.93 277.665 224.742 276.359C224.427 273.749 224.364 270.877 223.671 268.354C224.93 267.919 226.127 267.484 227.323 267.049C228.267 266.701 227.889 264.612 226.945 264.96V264.96Z" fill="#181715"/>
<path d="M231.037 265.309C230.659 265.657 230.596 266.266 230.785 266.788C231.037 267.571 230.974 268.615 230.974 269.398C230.974 270.791 232.485 270.791 232.485 269.398C232.485 268.093 232.485 266.875 232.107 265.744C231.918 265.135 231.415 265.048 231.037 265.309Z" fill="#181715"/>
<path d="M238.969 270.965C238.276 270.616 238.339 270.181 238.339 269.137C238.339 268.789 238.402 268.615 238.402 268.528C238.717 268.615 239.095 268.963 239.347 269.137C240.165 269.833 240.983 268.006 240.102 267.31C239.158 266.527 237.647 265.657 237.017 267.484C236.577 268.789 236.64 271.4 237.521 272.27C238.151 272.966 240.102 273.14 240.039 274.445C239.976 276.359 238.088 274.88 237.647 274.184C237.017 273.14 235.947 274.619 236.577 275.663C238.151 278.274 241.802 278.187 241.55 273.923C241.487 272.096 239.976 271.487 238.969 270.965V270.965Z" fill="#181715"/>
<path d="M252 269.746C251.371 269.92 250.804 270.007 250.175 270.007C250.426 269.224 250.678 268.354 250.93 267.571C251.308 268.267 251.685 268.963 252 269.746C252.063 269.746 252.063 269.746 252 269.746ZM251.371 264.873C251.056 264.351 250.363 264.525 250.175 265.047C249.608 266.527 247.531 274.01 247.216 275.141C246.901 276.446 248.349 276.969 248.664 275.663C248.978 274.445 249.293 273.14 249.608 271.922C250.552 272.009 251.497 271.922 252.378 271.661C252.567 271.574 252.693 271.487 252.756 271.313C253.322 272.705 253.889 274.097 254.329 275.489C254.518 276.098 255.022 275.663 255.337 275.402C255.651 275.141 255.84 275.054 255.651 274.445C254.581 271.052 253.133 267.832 251.371 264.873V264.873Z" fill="#181715"/>
<path d="M264.339 263.046C263.017 263.046 261.695 263.394 260.373 263.481C259.492 263.481 260.751 272.444 261.065 273.923C261.38 275.228 262.828 274.706 262.513 273.401C262.199 272.096 262.01 270.703 261.821 269.398C262.45 269.224 263.08 269.05 263.709 268.789C264.654 268.441 264.276 266.44 263.332 266.788C262.765 266.962 262.199 267.136 261.569 267.31C261.506 266.875 261.443 266.353 261.38 265.918C261.38 265.831 261.317 265.744 261.317 265.657C262.324 265.57 263.332 265.309 264.402 265.309C265.346 265.222 265.346 263.046 264.339 263.046V263.046Z" fill="#181715"/>
<path d="M272.019 271.661C270.257 272.183 269.312 271.313 268.809 269.05C268.746 268.702 268.683 268.441 268.62 268.093C269.249 267.919 269.816 267.658 270.382 267.397C271.327 266.962 270.886 264.96 270.005 265.396C269.438 265.657 268.935 265.918 268.368 266.005C268.305 265.309 268.179 264.699 268.053 264.09C268.872 263.742 269.69 263.481 270.445 263.046C271.39 262.611 270.949 260.61 270.068 261.045C269.123 261.48 267.55 262.176 266.605 262.611C266.416 262.698 266.228 263.394 266.353 263.916C266.668 264.873 267.738 271.661 268.053 272.705C268.935 275.402 270.445 274.271 272.397 273.749C273.341 273.488 272.963 271.4 272.019 271.661V271.661Z" fill="#181715"/>
<path d="M276.678 267.919C276.804 267.049 276.93 266.092 277.055 265.222C277.37 266.005 277.685 266.788 278 267.571C277.622 267.745 277.181 267.832 276.678 267.919V267.919ZM277.433 261.915C277.055 261.219 276.174 261.219 276.048 262.176C275.733 264.003 275.482 265.831 275.23 267.658C274.663 267.745 274.474 268.876 274.915 269.485C274.789 270.355 274.6 271.139 274.348 272.009C274.034 273.314 275.482 273.836 275.796 272.531C276.048 271.661 276.174 270.791 276.363 269.92C276.678 269.92 276.93 269.833 277.244 269.833C277.748 269.746 278.315 269.572 278.818 269.398C279.133 270.268 279.511 271.226 279.888 272.096C280.14 272.705 280.581 272.183 280.896 271.922C281.21 271.661 281.462 271.661 281.21 271.052C280.77 270.094 278.252 263.568 277.433 261.915V261.915Z" fill="#181715"/>
<path d="M286.75 259.479C284.484 259.827 282.155 259.914 279.888 260.262C278.944 260.436 278.881 262.524 279.888 262.35C280.707 262.176 281.525 262.089 282.406 262.089C282.847 264.525 283.225 266.962 283.477 269.485C283.603 270.79 285.113 270.268 284.925 268.963C284.673 266.614 284.358 264.264 283.917 262.002C284.862 261.915 285.806 261.828 286.75 261.654C287.694 261.393 287.694 259.305 286.75 259.479V259.479Z" fill="#181715"/>
<path d="M293.108 258.608C292.731 261.48 293.297 265.309 291.975 267.745C290.527 266.266 290.527 263.22 290.339 260.784C290.213 259.479 288.702 259.392 288.828 260.784C289.142 264.177 289.142 268.354 291.786 270.007C292.101 270.181 292.416 270.181 292.731 269.833C294.871 266.962 294.116 262.785 294.619 259.13C294.808 257.912 293.297 257.303 293.108 258.608Z" fill="#181715"/>
<path d="M298.271 260.262C298.963 259.827 299.781 259.566 300.033 260.784C300.222 261.915 299.467 262.959 298.774 263.568C298.585 262.437 298.459 261.306 298.271 260.262ZM300.222 264.612C301.229 263.307 301.859 261.567 301.355 259.653C300.726 257.39 296.445 258.608 296.571 259.479C296.508 259.74 296.571 260.001 296.697 260.262C296.697 260.349 296.697 260.436 296.76 260.523C297.263 263.22 297.515 266.005 298.019 268.702C298.271 270.007 299.781 269.485 299.467 268.18C299.341 267.571 299.215 266.962 299.152 266.266C300.474 267.136 301.544 268.441 302.488 270.007C303.118 271.052 304.188 269.572 303.559 268.528C302.614 266.875 301.481 265.57 300.222 264.612Z" fill="#181715"/>
<path d="M310.295 265.918C308.721 267.223 307.525 267.049 306.706 264.699C306.517 264.177 306.391 263.568 306.266 263.046C306.706 262.959 307.147 262.785 307.588 262.785C308.595 262.785 308.595 260.61 307.588 260.697C307.021 260.697 306.517 260.958 305.951 261.045C305.888 260.262 305.825 259.392 305.762 258.608C305.762 258.26 305.636 257.999 305.447 257.825C306.329 257.738 307.21 257.651 308.154 257.651C309.161 257.651 309.161 255.563 308.154 255.563C306.769 255.563 305.699 255.563 304.314 255.911C303.37 256.172 304.692 264.438 305.825 266.875C307.084 269.572 309.287 269.311 311.113 267.745C311.931 267.049 311.176 265.222 310.295 265.918V265.918Z" fill="#181715"/>
</svg>
