<svg width="1590" height="400" viewBox="0 0 1590 400" fill="none" xmlns="http://www.w3.org/2000/svg">
<rect width="1590" height="400" fill="#014BAA"/>
<path d="M490.312 207.758L503.25 176.328H522.656V177.629H521.109C519.703 177.629 518.578 177.875 517.734 178.367C517.148 178.695 516.68 179.246 516.328 180.02C516.07 180.582 515.941 182.047 515.941 184.414V215.844C515.941 218.281 516.07 219.805 516.328 220.414C516.586 221.023 517.113 221.562 517.91 222.031C518.707 222.477 519.773 222.699 521.109 222.699H522.656V224H497.766V222.699H499.312C500.719 222.699 501.844 222.453 502.688 221.961C503.273 221.633 503.742 221.07 504.094 220.273C504.352 219.711 504.48 218.234 504.48 215.844V180.512L486.199 224H485.355L466.793 180.828V214.402C466.793 216.746 466.852 218.188 466.969 218.727C467.273 219.898 467.93 220.859 468.938 221.609C469.969 222.336 471.574 222.699 473.754 222.699V224H457.441V222.699H457.934C458.988 222.723 459.973 222.559 460.887 222.207C461.801 221.832 462.492 221.34 462.961 220.73C463.43 220.121 463.793 219.266 464.051 218.164C464.098 217.906 464.121 216.711 464.121 214.578V184.414C464.121 182 463.992 180.5 463.734 179.914C463.477 179.305 462.949 178.777 462.152 178.332C461.355 177.863 460.289 177.629 458.953 177.629H457.441V176.328H476.918L490.312 207.758ZM548.137 190.145C550.997 190.145 553.657 190.883 556.118 192.359C558.579 193.836 560.442 195.934 561.708 198.652C562.997 201.371 563.641 204.348 563.641 207.582C563.641 212.246 562.458 216.148 560.091 219.289C557.231 223.086 553.282 224.984 548.243 224.984C543.298 224.984 539.489 223.25 536.817 219.781C534.145 216.312 532.809 212.293 532.809 207.723C532.809 203.012 534.169 198.91 536.887 195.418C539.63 191.902 543.38 190.145 548.137 190.145ZM548.278 192.641C547.083 192.641 546.052 193.098 545.184 194.012C544.341 194.902 543.778 196.684 543.497 199.355C543.239 202.004 543.11 205.695 543.11 210.43C543.11 212.938 543.274 215.281 543.602 217.461C543.86 219.125 544.411 220.391 545.255 221.258C546.098 222.125 547.059 222.559 548.137 222.559C549.192 222.559 550.071 222.266 550.774 221.68C551.688 220.883 552.298 219.77 552.602 218.34C553.071 216.113 553.305 211.613 553.305 204.84C553.305 200.855 553.083 198.125 552.637 196.648C552.192 195.148 551.536 194.059 550.669 193.379C550.059 192.887 549.262 192.641 548.278 192.641ZM575.904 224V222.699C577.545 222.699 578.564 222.254 578.963 221.363C579.384 220.449 579.595 219.312 579.595 217.953V197.633C579.595 195.688 579.349 194.352 578.857 193.625C578.388 192.898 577.404 192.5 575.904 192.43V191.129H592.463V192.43C591.314 192.617 590.517 193.074 590.072 193.801C589.65 194.527 589.439 195.805 589.439 197.633V218.34C589.439 219.699 589.627 220.625 590.002 221.117C590.377 221.586 591.103 221.82 592.181 221.82H595.767C596.963 221.82 597.771 221.598 598.193 221.152C598.638 220.707 598.861 219.77 598.861 218.34V198.16C598.861 196.051 598.65 194.621 598.228 193.871C597.83 193.121 597.009 192.641 595.767 192.43V191.129H611.763V192.43C610.545 192.617 609.724 193.074 609.302 193.801C608.904 194.527 608.705 195.898 608.705 197.914V218.34C608.705 219.793 608.904 220.742 609.302 221.188C609.701 221.609 610.521 221.82 611.763 221.82H615.103C616.298 221.82 617.095 221.621 617.494 221.223C617.916 220.801 618.127 219.887 618.127 218.48V197.914C618.127 195.922 617.927 194.562 617.529 193.836C617.154 193.109 616.345 192.641 615.103 192.43V191.129H631.697V192.43C630.244 192.477 629.259 192.84 628.744 193.52C628.228 194.176 627.97 195.641 627.97 197.914V217.672C627.97 219.664 628.252 221 628.814 221.68C629.4 222.359 630.361 222.699 631.697 222.699V232.648H630.361C630.103 229.836 629.095 227.691 627.338 226.215C625.603 224.738 622.779 224 618.865 224H575.904ZM643.889 224V222.699C645.248 222.699 646.198 222.359 646.737 221.68C647.299 220.977 647.58 219.652 647.58 217.707V197.527C647.58 195.465 647.311 194.105 646.772 193.449C646.233 192.77 645.272 192.43 643.889 192.43V191.129H660.623V192.43C659.452 192.477 658.62 192.781 658.127 193.344C657.659 193.906 657.424 195.184 657.424 197.176V205.859H666.846V197.176C666.846 195.535 666.67 194.34 666.319 193.59C665.967 192.816 665.088 192.43 663.682 192.43V191.129H680.381V192.43C679.022 192.43 678.061 192.77 677.498 193.449C676.959 194.105 676.69 195.219 676.69 196.789V217.707C676.69 219.77 676.959 221.105 677.498 221.715C678.038 222.324 678.998 222.652 680.381 222.699V224H663.682V222.699C664.854 222.676 665.674 222.406 666.143 221.891C666.612 221.352 666.846 220.039 666.846 217.953V208.074H657.424V217.707C657.424 219.793 657.659 221.152 658.127 221.785C658.62 222.395 659.452 222.699 660.623 222.699V224H643.889ZM720.382 206.387H702.347C702.558 210.746 703.718 214.191 705.827 216.723C707.445 218.668 709.39 219.641 711.663 219.641C713.07 219.641 714.347 219.254 715.495 218.48C716.644 217.684 717.874 216.266 719.187 214.227L720.382 215C718.601 218.633 716.632 221.211 714.476 222.734C712.32 224.234 709.823 224.984 706.988 224.984C702.113 224.984 698.421 223.109 695.913 219.359C693.898 216.336 692.89 212.586 692.89 208.109C692.89 202.625 694.366 198.266 697.32 195.031C700.296 191.773 703.777 190.145 707.761 190.145C711.089 190.145 713.972 191.516 716.409 194.258C718.87 196.977 720.195 201.02 720.382 206.387ZM711.734 204.031C711.734 200.258 711.523 197.668 711.101 196.262C710.702 194.855 710.07 193.789 709.202 193.062C708.71 192.641 708.054 192.43 707.234 192.43C706.015 192.43 705.019 193.027 704.245 194.223C702.863 196.309 702.171 199.168 702.171 202.801V204.031H711.734ZM750.293 186.031C746.543 186.031 743.52 185.445 741.223 184.273C738.949 183.102 737.812 181.52 737.812 179.527C737.812 178.473 738.117 177.641 738.727 177.031C739.336 176.422 740.062 176.117 740.906 176.117C742.758 176.117 744.129 177.57 745.02 180.477C745.418 181.789 745.957 182.703 746.637 183.219C747.34 183.734 748.406 183.992 749.836 183.992C751.758 183.992 752.988 183.734 753.527 183.219C754.066 182.703 754.523 181.848 754.898 180.652C755.859 177.629 757.266 176.117 759.117 176.117C759.984 176.117 760.723 176.422 761.332 177.031C761.941 177.617 762.246 178.449 762.246 179.527C762.246 181.52 761.18 183.102 759.047 184.273C756.914 185.445 753.996 186.031 750.293 186.031ZM751.559 224V222.699C753.668 222.699 754.723 221.129 754.723 217.988V201.887L745.301 217.988C745.324 221.059 746.391 222.629 748.5 222.699V224H731.766V222.699C733.102 222.699 734.051 222.324 734.613 221.574C735.176 220.824 735.457 219.512 735.457 217.637V197.352C735.457 194.07 734.227 192.43 731.766 192.43V191.129H748.5V192.43C747.281 192.477 746.438 192.828 745.969 193.484C745.523 194.141 745.301 195.43 745.301 197.352V213.383L754.723 197.07C754.699 195.336 754.441 194.129 753.949 193.449C753.457 192.77 752.66 192.43 751.559 192.43V191.129H768.293V192.43C767.027 192.453 766.09 192.77 765.48 193.379C764.871 193.988 764.566 195.16 764.566 196.895V217.812C764.566 219.758 764.836 221.059 765.375 221.715C765.938 222.371 766.91 222.699 768.293 222.699V224H751.559ZM780.485 224V222.699C782.126 222.699 783.145 222.254 783.544 221.363C783.966 220.449 784.177 219.312 784.177 217.953V197.633C784.177 195.688 783.93 194.352 783.438 193.625C782.97 192.898 781.985 192.5 780.485 192.43V191.129H797.044V192.43C795.895 192.617 795.098 193.074 794.653 193.801C794.231 194.527 794.02 195.805 794.02 197.633V218.34C794.02 219.699 794.208 220.625 794.583 221.117C794.958 221.586 795.684 221.82 796.763 221.82H800.348C801.544 221.82 802.352 221.598 802.774 221.152C803.22 220.707 803.442 219.77 803.442 218.34V198.16C803.442 196.051 803.231 194.621 802.809 193.871C802.411 193.121 801.591 192.641 800.348 192.43V191.129H816.345V192.43C815.126 192.617 814.305 193.074 813.884 193.801C813.485 194.527 813.286 195.898 813.286 197.914V218.34C813.286 219.793 813.485 220.742 813.884 221.188C814.282 221.609 815.102 221.82 816.345 221.82H819.684C820.88 221.82 821.677 221.621 822.075 221.223C822.497 220.801 822.708 219.887 822.708 218.48V197.914C822.708 195.922 822.509 194.562 822.11 193.836C821.735 193.109 820.927 192.641 819.684 192.43V191.129H836.278V192.43C834.825 192.477 833.841 192.84 833.325 193.52C832.809 194.176 832.552 195.641 832.552 197.914V217.672C832.552 219.664 832.833 221 833.395 221.68C833.981 222.359 834.942 222.699 836.278 222.699V232.648H834.942C834.684 229.836 833.677 227.691 831.919 226.215C830.184 224.738 827.36 224 823.446 224H780.485ZM868.263 224V222.699C870.373 222.699 871.427 221.129 871.427 217.988V201.887L862.005 217.988C862.029 221.059 863.095 222.629 865.205 222.699V224H848.47V222.699C849.806 222.699 850.755 222.324 851.318 221.574C851.88 220.824 852.162 219.512 852.162 217.637V197.352C852.162 194.07 850.931 192.43 848.47 192.43V191.129H865.205V192.43C863.986 192.477 863.142 192.828 862.673 193.484C862.228 194.141 862.005 195.43 862.005 197.352V213.383L871.427 197.07C871.404 195.336 871.146 194.129 870.654 193.449C870.162 192.77 869.365 192.43 868.263 192.43V191.129H884.998V192.43C883.732 192.453 882.795 192.77 882.185 193.379C881.576 193.988 881.271 195.16 881.271 196.895V217.812C881.271 219.758 881.541 221.059 882.08 221.715C882.642 222.371 883.615 222.699 884.998 222.699V224H868.263ZM915.682 186.031C911.932 186.031 908.909 185.445 906.612 184.273C904.338 183.102 903.202 181.52 903.202 179.527C903.202 178.473 903.506 177.641 904.116 177.031C904.725 176.422 905.452 176.117 906.295 176.117C908.147 176.117 909.518 177.57 910.409 180.477C910.807 181.789 911.346 182.703 912.026 183.219C912.729 183.734 913.795 183.992 915.225 183.992C917.147 183.992 918.377 183.734 918.916 183.219C919.455 182.703 919.913 181.848 920.288 180.652C921.248 177.629 922.655 176.117 924.506 176.117C925.373 176.117 926.112 176.422 926.721 177.031C927.33 177.617 927.635 178.449 927.635 179.527C927.635 181.52 926.569 183.102 924.436 184.273C922.303 185.445 919.385 186.031 915.682 186.031ZM916.948 224V222.699C919.057 222.699 920.112 221.129 920.112 217.988V201.887L910.69 217.988C910.713 221.059 911.78 222.629 913.889 222.699V224H897.155V222.699C898.491 222.699 899.44 222.324 900.002 221.574C900.565 220.824 900.846 219.512 900.846 217.637V197.352C900.846 194.07 899.616 192.43 897.155 192.43V191.129H913.889V192.43C912.67 192.477 911.827 192.828 911.358 193.484C910.913 194.141 910.69 195.43 910.69 197.352V213.383L920.112 197.07C920.088 195.336 919.83 194.129 919.338 193.449C918.846 192.77 918.049 192.43 916.948 192.43V191.129H933.682V192.43C932.416 192.453 931.479 192.77 930.87 193.379C930.26 193.988 929.955 195.16 929.955 196.895V217.812C929.955 219.758 930.225 221.059 930.764 221.715C931.327 222.371 932.299 222.699 933.682 222.699V224H916.948ZM1000.22 175.238H1001.41C1001.18 176.996 1000.11 179.047 998.215 181.391C996.34 183.734 993.738 184.906 990.41 184.906C989.918 184.906 989.121 184.859 988.02 184.766C987.035 184.695 986.273 184.66 985.734 184.66C982.758 184.66 980.133 185.762 977.859 187.965C975.586 190.145 974.273 193.742 973.922 198.758C976.945 193.016 981.141 190.145 986.508 190.145C990.82 190.145 994.477 191.738 997.477 194.926C1000.48 198.09 1001.98 202.32 1001.98 207.617C1001.98 212.375 1000.65 216.465 998.004 219.887C995.379 223.285 991.582 224.984 986.613 224.984C981.785 224.984 978 223.285 975.258 219.887C972.516 216.465 971.145 211.238 971.145 204.207C971.145 198.77 971.895 193.754 973.395 189.16C974.895 184.543 976.957 181.215 979.582 179.176C982.23 177.137 986.191 176.117 991.465 176.117C992.074 176.117 992.801 176.141 993.645 176.188C994.699 176.258 995.449 176.293 995.895 176.293C997.254 176.293 998.695 175.941 1000.22 175.238ZM986.578 192.605C984.586 192.605 983.238 193.777 982.535 196.121C981.855 198.441 981.516 202.32 981.516 207.758C981.516 213.805 981.879 217.789 982.605 219.711C983.332 221.609 984.68 222.559 986.648 222.559C987.844 222.559 988.852 222.055 989.672 221.047C990.516 220.039 991.055 218.422 991.289 216.195C991.547 213.969 991.676 209.973 991.676 204.207C991.676 200.574 991.348 197.738 990.691 195.699C990.035 193.637 988.664 192.605 986.578 192.605ZM1030.31 224V222.699C1031.48 222.676 1032.44 222.395 1033.19 221.855C1033.96 221.293 1034.35 220.051 1034.35 218.129V193.344H1025.07V207.723C1025.07 212.902 1024.81 216.477 1024.29 218.445C1023.78 220.414 1022.78 221.926 1021.31 222.98C1019.83 224.035 1018.26 224.562 1016.59 224.562C1014.72 224.562 1013.21 224 1012.06 222.875C1010.93 221.727 1010.37 220.414 1010.37 218.938C1010.37 217.508 1010.78 216.348 1011.6 215.457C1012.45 214.543 1013.52 214.086 1014.84 214.086C1017.34 214.086 1018.6 215.609 1018.6 218.656C1018.6 220.039 1018.87 220.73 1019.41 220.73C1020.44 220.73 1021.24 219.875 1021.8 218.164C1022.36 216.453 1022.64 212.973 1022.64 207.723V198.16C1022.64 196.004 1022.35 194.527 1021.76 193.73C1021.18 192.934 1020.17 192.5 1018.74 192.43V191.129H1047.71V192.43C1045.36 192.477 1044.19 193.953 1044.19 196.859V217.988C1044.19 219.605 1044.44 220.789 1044.93 221.539C1045.42 222.266 1046.35 222.652 1047.71 222.699V224H1030.31ZM1075.51 190.145C1078.37 190.145 1081.03 190.883 1083.49 192.359C1085.95 193.836 1087.81 195.934 1089.08 198.652C1090.37 201.371 1091.01 204.348 1091.01 207.582C1091.01 212.246 1089.83 216.148 1087.46 219.289C1084.6 223.086 1080.65 224.984 1075.61 224.984C1070.67 224.984 1066.86 223.25 1064.19 219.781C1061.52 216.312 1060.18 212.293 1060.18 207.723C1060.18 203.012 1061.54 198.91 1064.26 195.418C1067 191.902 1070.75 190.145 1075.51 190.145ZM1075.65 192.641C1074.45 192.641 1073.42 193.098 1072.56 194.012C1071.71 194.902 1071.15 196.684 1070.87 199.355C1070.61 202.004 1070.48 205.695 1070.48 210.43C1070.48 212.938 1070.65 215.281 1070.97 217.461C1071.23 219.125 1071.78 220.391 1072.63 221.258C1073.47 222.125 1074.43 222.559 1075.51 222.559C1076.56 222.559 1077.44 222.266 1078.15 221.68C1079.06 220.883 1079.67 219.77 1079.97 218.34C1080.44 216.113 1080.68 211.613 1080.68 204.84C1080.68 200.855 1080.45 198.125 1080.01 196.648C1079.56 195.148 1078.91 194.059 1078.04 193.379C1077.43 192.887 1076.63 192.641 1075.65 192.641ZM1103.31 222.699C1104.67 222.605 1105.62 222.254 1106.16 221.645C1106.7 221.012 1106.97 219.77 1106.97 217.918V197.035C1106.97 195.371 1106.71 194.223 1106.19 193.59C1105.7 192.934 1104.74 192.547 1103.31 192.43V191.129H1132.21V199.707H1130.91C1130.37 197.035 1129.63 195.312 1128.69 194.539C1127.76 193.742 1125.96 193.344 1123.31 193.344H1116.81V218.129C1116.81 219.77 1117.08 220.93 1117.62 221.609C1118.16 222.289 1119.25 222.652 1120.89 222.699V224H1103.31V222.699Z" fill="#04A6FF"/>
</svg>
