<svg width="1590" height="400" viewBox="0 0 1590 400" fill="none" xmlns="http://www.w3.org/2000/svg">
<rect width="1590" height="400" fill="#014BAA"/>
<path d="M560.609 177.629C558.031 177.629 556.367 178.039 555.617 178.859C554.867 179.68 554.492 181.203 554.492 183.43V216.582C554.492 219.113 554.867 220.754 555.617 221.504C556.367 222.254 558.09 222.652 560.785 222.699V224H536.738V222.699C538.66 222.699 540.008 222.547 540.781 222.242C541.578 221.914 542.152 221.387 542.504 220.66C542.855 219.934 543.031 218.645 543.031 216.793V179.422H531.57V193.66C531.57 199.613 531.418 204.148 531.113 207.266C530.832 210.383 530.023 213.348 528.688 216.16C527.375 218.949 525.676 221.047 523.59 222.453C521.504 223.859 519.195 224.562 516.664 224.562C514.367 224.562 512.586 223.965 511.32 222.77C510.055 221.551 509.422 220.051 509.422 218.27C509.422 216.793 509.809 215.586 510.582 214.648C511.355 213.688 512.469 213.207 513.922 213.207C516.617 213.207 518.105 214.883 518.387 218.234C518.504 219.734 519.09 220.484 520.145 220.484C521.621 220.484 523.191 219.5 524.855 217.531C526.52 215.539 527.621 212.809 528.16 209.34C528.699 205.871 528.969 200.844 528.969 194.258V185.258C528.969 182.703 528.805 181.004 528.477 180.16C528.172 179.293 527.562 178.672 526.648 178.297C525.758 177.898 524.152 177.676 521.832 177.629V176.328H560.609V177.629ZM585.528 225.336L574.911 200.973C573.317 197.293 572.134 195.031 571.36 194.188C570.61 193.344 569.696 192.758 568.618 192.43V191.129H586.091V192.43C584.942 192.477 584.134 192.699 583.665 193.098C583.196 193.496 582.962 193.977 582.962 194.539C582.962 195.43 583.548 197.188 584.72 199.812L590.345 212.68L594.177 202.73C595.559 199.191 596.251 196.73 596.251 195.348C596.251 194.48 595.958 193.789 595.372 193.273C594.809 192.758 593.802 192.477 592.348 192.43V191.129H603.352V192.43C602.274 192.547 601.395 192.969 600.716 193.695C600.036 194.398 598.899 196.824 597.305 200.973L587.919 225.336C585.552 231.43 583.794 235.18 582.645 236.586C581.028 238.555 579.001 239.539 576.563 239.539C574.618 239.539 573.036 238.977 571.817 237.852C570.622 236.75 570.024 235.414 570.024 233.844C570.024 232.484 570.434 231.359 571.255 230.469C572.098 229.578 573.13 229.133 574.348 229.133C575.52 229.133 576.458 229.508 577.161 230.258C577.888 231.008 578.263 232.168 578.286 233.738C578.309 234.629 578.415 235.203 578.602 235.461C578.79 235.719 579.059 235.848 579.411 235.848C579.973 235.848 580.571 235.508 581.204 234.828C582.141 233.844 583.243 231.594 584.509 228.078L585.528 225.336ZM649.084 191.129V192.43C647.888 192.547 647.009 192.91 646.447 193.52C645.908 194.129 645.638 195.453 645.638 197.492V216.934C645.638 219.441 645.861 220.977 646.306 221.539C646.775 222.078 647.701 222.465 649.084 222.699V224H632.279V222.699C633.873 222.465 634.857 222.055 635.232 221.469C635.607 220.883 635.795 219.371 635.795 216.934V208.672C631.084 210.172 627.392 210.922 624.72 210.922C622.798 210.922 621.146 210.477 619.763 209.586C618.38 208.672 617.49 207.688 617.091 206.633C616.716 205.578 616.529 204.125 616.529 202.273V197.844C616.529 195.617 616.318 194.211 615.896 193.625C615.474 193.016 614.525 192.617 613.048 192.43V191.129H629.466V192.43C628.505 192.57 627.744 192.91 627.181 193.449C626.642 193.965 626.373 195.312 626.373 197.492V202.273C626.373 204.336 626.584 205.742 627.005 206.492C627.451 207.242 628.435 207.617 629.959 207.617C631.318 207.617 633.263 207.254 635.795 206.527V197.844C635.795 195.805 635.595 194.457 635.197 193.801C634.798 193.121 633.943 192.664 632.63 192.43V191.129H649.084ZM661.557 224V222.699C663.198 222.699 664.217 222.254 664.616 221.363C665.038 220.449 665.248 219.324 665.248 217.988V197.633C665.248 195.688 665.002 194.352 664.51 193.625C664.041 192.898 663.057 192.5 661.557 192.43V191.129H678.116V192.43C676.967 192.617 676.17 193.074 675.725 193.801C675.303 194.527 675.092 195.805 675.092 197.633V218.34C675.092 219.699 675.28 220.625 675.655 221.117C676.03 221.586 676.756 221.82 677.834 221.82H681.42C682.616 221.82 683.424 221.598 683.846 221.152C684.291 220.707 684.514 219.77 684.514 218.34V198.16C684.514 196.051 684.303 194.621 683.881 193.871C683.483 193.121 682.663 192.641 681.42 192.43V191.129H697.416V192.43C696.198 192.617 695.377 193.074 694.955 193.801C694.557 194.527 694.358 195.898 694.358 197.914V218.34C694.358 219.793 694.557 220.742 694.955 221.188C695.354 221.609 696.174 221.82 697.416 221.82H700.756C701.952 221.82 702.748 221.621 703.147 221.223C703.569 220.801 703.78 219.887 703.78 218.48V197.914C703.78 195.922 703.58 194.562 703.182 193.836C702.807 193.109 701.998 192.641 700.756 192.43V191.129H717.35V192.43C715.897 192.477 714.913 192.84 714.397 193.52C713.881 194.176 713.623 195.641 713.623 197.914V217.988C713.623 219.91 713.928 221.176 714.538 221.785C715.17 222.395 716.108 222.699 717.35 222.699V224H661.557ZM749.335 224V222.699C751.445 222.699 752.499 221.129 752.499 217.988V201.887L743.077 217.988C743.101 221.059 744.167 222.629 746.277 222.699V224H729.542V222.699C730.878 222.699 731.827 222.324 732.39 221.574C732.952 220.824 733.234 219.512 733.234 217.637V197.352C733.234 194.07 732.003 192.43 729.542 192.43V191.129H746.277V192.43C745.058 192.477 744.214 192.828 743.745 193.484C743.3 194.141 743.077 195.43 743.077 197.352V213.383L752.499 197.07C752.476 195.336 752.218 194.129 751.726 193.449C751.234 192.77 750.437 192.43 749.335 192.43V191.129H766.07V192.43C764.804 192.453 763.866 192.77 763.257 193.379C762.648 193.988 762.343 195.16 762.343 196.895V217.812C762.343 219.758 762.613 221.059 763.152 221.715C763.714 222.371 764.687 222.699 766.07 222.699V224H749.335ZM806.035 206.387H788C788.211 210.746 789.371 214.191 791.48 216.723C793.098 218.668 795.043 219.641 797.316 219.641C798.723 219.641 800 219.254 801.148 218.48C802.297 217.684 803.527 216.266 804.84 214.227L806.035 215C804.254 218.633 802.285 221.211 800.129 222.734C797.973 224.234 795.477 224.984 792.641 224.984C787.766 224.984 784.074 223.109 781.566 219.359C779.551 216.336 778.543 212.586 778.543 208.109C778.543 202.625 780.02 198.266 782.973 195.031C785.949 191.773 789.43 190.145 793.414 190.145C796.742 190.145 799.625 191.516 802.062 194.258C804.523 196.977 805.848 201.02 806.035 206.387ZM797.387 204.031C797.387 200.258 797.176 197.668 796.754 196.262C796.355 194.855 795.723 193.789 794.855 193.062C794.363 192.641 793.707 192.43 792.887 192.43C791.668 192.43 790.672 193.027 789.898 194.223C788.516 196.309 787.824 199.168 787.824 202.801V204.031H797.387ZM842.654 191.129H859.388V192.43C858.123 192.477 857.267 192.828 856.822 193.484C856.4 194.141 856.189 195.535 856.189 197.668V205.754C858.814 205.754 860.607 205.332 861.568 204.488C862.552 203.621 863.49 201.98 864.38 199.566C865.623 196.168 866.877 193.824 868.142 192.535C869.431 191.223 871.177 190.566 873.38 190.566C875.232 190.566 876.849 191.094 878.232 192.148C879.615 193.18 880.306 194.551 880.306 196.262C880.306 197.574 879.896 198.699 879.076 199.637C878.279 200.551 877.236 201.008 875.947 201.008C873.298 201.008 871.951 199.648 871.904 196.93C871.88 195.031 871.47 194.082 870.673 194.082C869.478 194.082 868.271 195.688 867.052 198.898C866.068 201.523 865.388 203.176 865.013 203.855C864.638 204.535 863.994 205.285 863.08 206.105C865.447 206.574 867.158 207.207 868.212 208.004C869.291 208.801 870.697 210.617 872.431 213.453L875.56 218.48C877.201 221.152 878.923 222.559 880.728 222.699V224H868.072L858.298 208.004H856.189V217.145C856.189 219.207 856.435 220.637 856.927 221.434C857.42 222.207 858.24 222.629 859.388 222.699V224H842.654V222.699C843.755 222.676 844.646 222.383 845.326 221.82C846.005 221.258 846.345 219.828 846.345 217.531V198.125C846.345 195.945 846.076 194.457 845.537 193.66C845.021 192.84 844.06 192.43 842.654 192.43V191.129ZM905.295 225.336L894.678 200.973C893.084 197.293 891.901 195.031 891.127 194.188C890.377 193.344 889.463 192.758 888.385 192.43V191.129H905.858V192.43C904.709 192.477 903.901 192.699 903.432 193.098C902.963 193.496 902.729 193.977 902.729 194.539C902.729 195.43 903.315 197.188 904.487 199.812L910.112 212.68L913.944 202.73C915.327 199.191 916.018 196.73 916.018 195.348C916.018 194.48 915.725 193.789 915.139 193.273C914.577 192.758 913.569 192.477 912.116 192.43V191.129H923.12V192.43C922.041 192.547 921.163 192.969 920.483 193.695C919.803 194.398 918.666 196.824 917.073 200.973L907.686 225.336C905.319 231.43 903.561 235.18 902.413 236.586C900.795 238.555 898.768 239.539 896.33 239.539C894.385 239.539 892.803 238.977 891.584 237.852C890.389 236.75 889.791 235.414 889.791 233.844C889.791 232.484 890.202 231.359 891.022 230.469C891.866 229.578 892.897 229.133 894.116 229.133C895.288 229.133 896.225 229.508 896.928 230.258C897.655 231.008 898.03 232.168 898.053 233.738C898.077 234.629 898.182 235.203 898.37 235.461C898.557 235.719 898.827 235.848 899.178 235.848C899.741 235.848 900.338 235.508 900.971 234.828C901.909 233.844 903.01 231.594 904.276 228.078L905.295 225.336ZM946.14 220.66V232.895C946.14 234.582 946.269 235.73 946.527 236.34C946.808 236.949 947.23 237.395 947.792 237.676C948.355 237.957 949.456 238.098 951.097 238.098V239.398H932.359V238.098C933.812 238.051 934.89 237.641 935.593 236.867C936.062 236.328 936.296 234.934 936.296 232.684V197.984C936.296 195.664 936.027 194.188 935.487 193.555C934.948 192.898 933.905 192.523 932.359 192.43V191.129H946.14V195.453C947.288 193.766 948.46 192.547 949.655 191.797C951.366 190.695 953.23 190.145 955.245 190.145C957.659 190.145 959.851 190.906 961.82 192.43C963.812 193.953 965.323 196.062 966.355 198.758C967.386 201.43 967.902 204.312 967.902 207.406C967.902 210.734 967.362 213.781 966.284 216.547C965.23 219.289 963.683 221.387 961.644 222.84C959.628 224.27 957.378 224.984 954.894 224.984C953.089 224.984 951.402 224.586 949.831 223.789C948.659 223.18 947.429 222.137 946.14 220.66ZM946.14 217.109C948.155 219.969 950.312 221.398 952.609 221.398C953.874 221.398 954.917 220.73 955.737 219.395C956.956 217.426 957.566 213.676 957.566 208.145C957.566 202.473 956.898 198.594 955.562 196.508C954.671 195.125 953.476 194.434 951.976 194.434C949.609 194.434 947.663 196.145 946.14 199.566V217.109ZM1007.52 215.527L1008.61 216.371C1007.06 219.277 1005.12 221.445 1002.8 222.875C1000.51 224.281 998.059 224.984 995.457 224.984C991.074 224.984 987.57 223.332 984.945 220.027C982.32 216.723 981.008 212.75 981.008 208.109C981.008 203.633 982.203 199.695 984.594 196.297C987.477 192.195 991.449 190.145 996.512 190.145C999.91 190.145 1002.61 191 1004.6 192.711C1006.61 194.422 1007.62 196.332 1007.62 198.441C1007.62 199.777 1007.21 200.844 1006.39 201.641C1005.59 202.438 1004.54 202.836 1003.23 202.836C1001.84 202.836 1000.7 202.379 999.781 201.465C998.891 200.551 998.34 198.922 998.129 196.578C997.988 195.102 997.648 194.07 997.109 193.484C996.57 192.898 995.938 192.605 995.211 192.605C994.086 192.605 993.125 193.203 992.328 194.398C991.109 196.203 990.5 198.969 990.5 202.695C990.5 205.789 990.992 208.754 991.977 211.59C992.961 214.402 994.309 216.5 996.02 217.883C997.309 218.891 998.832 219.395 1000.59 219.395C1001.74 219.395 1002.83 219.125 1003.86 218.586C1004.89 218.047 1006.11 217.027 1007.52 215.527ZM1071.04 191.129V192.43C1068.67 192.594 1067.49 194.188 1067.49 197.211V217.848C1067.49 219.465 1067.74 220.66 1068.26 221.434C1068.8 222.184 1069.72 222.605 1071.04 222.699V224H1054.13V222.699C1055.37 222.605 1056.26 222.207 1056.8 221.504C1057.36 220.801 1057.64 219.582 1057.64 217.848V197.211C1057.64 195.594 1057.38 194.422 1056.87 193.695C1056.35 192.969 1055.44 192.547 1054.13 192.43V191.129H1071.04ZM1020.2 224V222.699C1021.56 222.512 1022.47 222.066 1022.94 221.363C1023.43 220.637 1023.68 219.312 1023.68 217.391V197.527C1023.68 195.746 1023.42 194.504 1022.91 193.801C1022.41 193.098 1021.51 192.641 1020.2 192.43V191.129H1037V192.43C1035.6 192.641 1034.66 193.133 1034.19 193.906C1033.75 194.656 1033.52 196.027 1033.52 198.02V205.859H1036.06C1041.77 205.859 1046.09 206.68 1048.99 208.32C1051.9 209.938 1053.35 212.188 1053.35 215.07C1053.35 217.789 1052.06 219.957 1049.49 221.574C1046.91 223.191 1043.09 224 1038.02 224H1020.2ZM1033.52 208.074V218.305C1033.52 219.898 1033.78 220.883 1034.3 221.258C1034.84 221.633 1035.48 221.82 1036.23 221.82C1038.06 221.82 1039.64 221.199 1040.98 219.957C1042.34 218.691 1043.02 216.992 1043.02 214.859C1043.02 210.336 1039.85 208.074 1033.52 208.074Z" fill="#04A6FF"/>
</svg>
