<svg width="1590" height="400" viewBox="0 0 1590 400" fill="none" xmlns="http://www.w3.org/2000/svg">
<rect width="1590" height="400" fill="#014BAA"/>
<path d="M401.059 175.238V191.762H399.688C398.656 187.449 396.734 184.145 393.922 181.848C391.109 179.551 387.922 178.402 384.359 178.402C381.383 178.402 378.652 179.258 376.168 180.969C373.684 182.68 371.867 184.918 370.719 187.684C369.242 191.223 368.504 195.16 368.504 199.496C368.504 203.762 369.043 207.652 370.121 211.168C371.199 214.66 372.887 217.309 375.184 219.113C377.48 220.895 380.457 221.785 384.113 221.785C387.113 221.785 389.855 221.129 392.34 219.816C394.848 218.504 397.484 216.242 400.25 213.031V217.145C397.578 219.934 394.789 221.961 391.883 223.227C389 224.469 385.625 225.09 381.758 225.09C376.672 225.09 372.148 224.07 368.188 222.031C364.25 219.992 361.203 217.062 359.047 213.242C356.914 209.422 355.848 205.355 355.848 201.043C355.848 196.496 357.031 192.184 359.398 188.105C361.789 184.027 365 180.863 369.031 178.613C373.086 176.363 377.387 175.238 381.934 175.238C385.285 175.238 388.824 175.965 392.551 177.418C394.707 178.262 396.078 178.684 396.664 178.684C397.414 178.684 398.059 178.414 398.598 177.875C399.16 177.312 399.523 176.434 399.688 175.238H401.059ZM430.161 190.145C433.02 190.145 435.68 190.883 438.141 192.359C440.602 193.836 442.466 195.934 443.731 198.652C445.02 201.371 445.665 204.348 445.665 207.582C445.665 212.246 444.481 216.148 442.114 219.289C439.255 223.086 435.305 224.984 430.266 224.984C425.321 224.984 421.513 223.25 418.841 219.781C416.169 216.312 414.833 212.293 414.833 207.723C414.833 203.012 416.192 198.91 418.911 195.418C421.653 191.902 425.403 190.145 430.161 190.145ZM430.302 192.641C429.106 192.641 428.075 193.098 427.208 194.012C426.364 194.902 425.802 196.684 425.52 199.355C425.263 202.004 425.134 205.695 425.134 210.43C425.134 212.938 425.298 215.281 425.626 217.461C425.884 219.125 426.434 220.391 427.278 221.258C428.122 222.125 429.083 222.559 430.161 222.559C431.216 222.559 432.095 222.266 432.798 221.68C433.712 220.883 434.321 219.77 434.626 218.34C435.095 216.113 435.329 211.613 435.329 204.84C435.329 200.855 435.106 198.125 434.661 196.648C434.216 195.148 433.559 194.059 432.692 193.379C432.083 192.887 431.286 192.641 430.302 192.641ZM456.17 191.129H474.31C478.107 191.129 481.213 191.82 483.627 193.203C486.041 194.562 487.248 196.59 487.248 199.285C487.248 202.918 484.74 205.367 479.724 206.633C486.498 207.43 489.884 210.266 489.884 215.141C489.884 218.094 488.513 220.309 485.771 221.785C483.029 223.262 479.267 224 474.486 224H456.17V222.699C457.787 222.535 458.783 222.16 459.158 221.574C459.556 220.988 459.755 219.84 459.755 218.129V198.547C459.755 195.898 459.533 194.246 459.088 193.59C458.666 192.934 457.693 192.547 456.17 192.43V191.129ZM470.091 205.789C475.67 205.625 478.459 203.551 478.459 199.566C478.459 195.488 475.67 193.414 470.091 193.344V205.789ZM470.091 208.004V218.797C470.091 219.898 470.267 220.684 470.619 221.152C470.97 221.598 471.732 221.82 472.904 221.82C474.873 221.82 476.548 221.129 477.931 219.746C479.314 218.363 480.005 216.605 480.005 214.473C480.005 212.223 479.232 210.582 477.685 209.551C476.162 208.52 473.63 208.004 470.091 208.004ZM514.838 220.66V232.895C514.838 234.582 514.967 235.73 515.225 236.34C515.506 236.949 515.928 237.395 516.491 237.676C517.053 237.957 518.155 238.098 519.795 238.098V239.398H501.057V238.098C502.51 238.051 503.588 237.641 504.291 236.867C504.76 236.328 504.995 234.934 504.995 232.684V197.984C504.995 195.664 504.725 194.188 504.186 193.555C503.647 192.898 502.604 192.523 501.057 192.43V191.129H514.838V195.453C515.987 193.766 517.159 192.547 518.354 191.797C520.065 190.695 521.928 190.145 523.944 190.145C526.358 190.145 528.549 190.906 530.518 192.43C532.51 193.953 534.022 196.062 535.053 198.758C536.084 201.43 536.6 204.312 536.6 207.406C536.6 210.734 536.061 213.781 534.983 216.547C533.928 219.289 532.381 221.387 530.342 222.84C528.327 224.27 526.077 224.984 523.592 224.984C521.788 224.984 520.1 224.586 518.53 223.789C517.358 223.18 516.127 222.137 514.838 220.66ZM514.838 217.109C516.854 219.969 519.01 221.398 521.307 221.398C522.573 221.398 523.616 220.73 524.436 219.395C525.655 217.426 526.264 213.676 526.264 208.145C526.264 202.473 525.596 198.594 524.26 196.508C523.37 195.125 522.174 194.434 520.674 194.434C518.307 194.434 516.362 196.145 514.838 199.566V217.109ZM577.234 206.387H559.198C559.409 210.746 560.57 214.191 562.679 216.723C564.296 218.668 566.241 219.641 568.515 219.641C569.921 219.641 571.198 219.254 572.347 218.48C573.495 217.684 574.726 216.266 576.038 214.227L577.234 215C575.452 218.633 573.484 221.211 571.327 222.734C569.171 224.234 566.675 224.984 563.839 224.984C558.964 224.984 555.273 223.109 552.765 219.359C550.749 216.336 549.741 212.586 549.741 208.109C549.741 202.625 551.218 198.266 554.171 195.031C557.148 191.773 560.628 190.145 564.613 190.145C567.941 190.145 570.823 191.516 573.261 194.258C575.722 196.977 577.046 201.02 577.234 206.387ZM568.585 204.031C568.585 200.258 568.374 197.668 567.952 196.262C567.554 194.855 566.921 193.789 566.054 193.062C565.562 192.641 564.905 192.43 564.085 192.43C562.866 192.43 561.87 193.027 561.097 194.223C559.714 196.309 559.023 199.168 559.023 202.801V204.031H568.585ZM588.723 191.129H602.469L610.801 211.52L619.133 191.129H632.527V192.43C631.238 192.5 630.324 192.887 629.785 193.59C629.246 194.27 628.977 195.5 628.977 197.281V217.707C628.977 219.559 629.223 220.836 629.715 221.539C630.23 222.242 631.168 222.629 632.527 222.699V224H615.195V222.699C616.648 222.676 617.668 222.289 618.254 221.539C618.84 220.789 619.133 219.512 619.133 217.707V196.648L607.672 224H605.879L594.77 197.035V218.27C594.77 219.793 595.027 220.895 595.543 221.574C596.059 222.254 597.066 222.629 598.566 222.699V224H588.723V222.699C590.035 222.652 590.961 222.289 591.5 221.609C592.062 220.906 592.344 219.711 592.344 218.023V197.035C592.344 195.418 592.074 194.27 591.535 193.59C590.996 192.887 590.059 192.5 588.723 192.43V191.129ZM672.704 206.387H654.669C654.88 210.746 656.04 214.191 658.149 216.723C659.766 218.668 661.712 219.641 663.985 219.641C665.391 219.641 666.669 219.254 667.817 218.48C668.966 217.684 670.196 216.266 671.509 214.227L672.704 215C670.923 218.633 668.954 221.211 666.798 222.734C664.641 224.234 662.145 224.984 659.309 224.984C654.434 224.984 650.743 223.109 648.235 219.359C646.22 216.336 645.212 212.586 645.212 208.109C645.212 202.625 646.688 198.266 649.641 195.031C652.618 191.773 656.098 190.145 660.083 190.145C663.411 190.145 666.294 191.516 668.731 194.258C671.192 196.977 672.516 201.02 672.704 206.387ZM664.055 204.031C664.055 200.258 663.845 197.668 663.423 196.262C663.024 194.855 662.391 193.789 661.524 193.062C661.032 192.641 660.376 192.43 659.555 192.43C658.337 192.43 657.341 193.027 656.567 194.223C655.184 196.309 654.493 199.168 654.493 202.801V204.031H664.055ZM684.087 224V222.699C685.447 222.699 686.396 222.359 686.935 221.68C687.498 220.977 687.779 219.652 687.779 217.707V197.527C687.779 195.465 687.509 194.105 686.97 193.449C686.431 192.77 685.47 192.43 684.087 192.43V191.129H700.822V192.43C699.65 192.477 698.818 192.781 698.326 193.344C697.857 193.906 697.623 195.184 697.623 197.176V205.859H707.045V197.176C707.045 195.535 706.869 194.34 706.517 193.59C706.166 192.816 705.287 192.43 703.88 192.43V191.129H720.58V192.43C719.22 192.43 718.259 192.77 717.697 193.449C717.158 194.105 716.888 195.219 716.888 196.789V217.707C716.888 219.77 717.158 221.105 717.697 221.715C718.236 222.324 719.197 222.652 720.58 222.699V224H703.88V222.699C705.052 222.676 705.873 222.406 706.341 221.891C706.81 221.352 707.045 220.039 707.045 217.953V208.074H697.623V217.707C697.623 219.793 697.857 221.152 698.326 221.785C698.818 222.395 699.65 222.699 700.822 222.699V224H684.087ZM732.772 224V222.699C734.131 222.699 735.08 222.359 735.62 221.68C736.182 220.977 736.463 219.652 736.463 217.707V197.527C736.463 195.465 736.194 194.105 735.655 193.449C735.116 192.77 734.155 192.43 732.772 192.43V191.129H749.506V192.43C748.334 192.477 747.502 192.781 747.01 193.344C746.541 193.906 746.307 195.184 746.307 197.176V205.859H755.729V197.176C755.729 195.535 755.553 194.34 755.202 193.59C754.85 192.816 753.971 192.43 752.565 192.43V191.129H769.264V192.43C767.905 192.43 766.944 192.77 766.381 193.449C765.842 194.105 765.573 195.219 765.573 196.789V217.707C765.573 219.77 765.842 221.105 766.381 221.715C766.92 222.324 767.881 222.652 769.264 222.699V224H752.565V222.699C753.737 222.676 754.557 222.406 755.026 221.891C755.495 221.352 755.729 220.039 755.729 217.953V208.074H746.307V217.707C746.307 219.793 746.541 221.152 747.01 221.785C747.502 222.395 748.334 222.699 749.506 222.699V224H732.772ZM832.573 191.129V192.43C830.206 192.594 829.023 194.188 829.023 197.211V217.848C829.023 219.465 829.28 220.66 829.796 221.434C830.335 222.184 831.261 222.605 832.573 222.699V224H815.663V222.699C816.905 222.605 817.796 222.207 818.335 221.504C818.898 220.801 819.179 219.582 819.179 217.848V197.211C819.179 195.594 818.921 194.422 818.405 193.695C817.89 192.969 816.976 192.547 815.663 192.43V191.129H832.573ZM781.737 224V222.699C783.097 222.512 784.011 222.066 784.48 221.363C784.972 220.637 785.218 219.312 785.218 217.391V197.527C785.218 195.746 784.96 194.504 784.445 193.801C783.952 193.098 783.05 192.641 781.737 192.43V191.129H798.542V192.43C797.136 192.641 796.198 193.133 795.73 193.906C795.284 194.656 795.062 196.027 795.062 198.02V205.859H797.593C803.312 205.859 807.624 206.68 810.53 208.32C813.437 209.938 814.89 212.188 814.89 215.07C814.89 217.789 813.601 219.957 811.023 221.574C808.445 223.191 804.624 224 799.562 224H781.737ZM795.062 208.074V218.305C795.062 219.898 795.32 220.883 795.835 221.258C796.374 221.633 797.019 221.82 797.769 221.82C799.597 221.82 801.179 221.199 802.515 219.957C803.874 218.691 804.554 216.992 804.554 214.859C804.554 210.336 801.39 208.074 795.062 208.074ZM872.715 206.387H854.68C854.891 210.746 856.051 214.191 858.16 216.723C859.777 218.668 861.723 219.641 863.996 219.641C865.402 219.641 866.68 219.254 867.828 218.48C868.977 217.684 870.207 216.266 871.52 214.227L872.715 215C870.934 218.633 868.965 221.211 866.809 222.734C864.652 224.234 862.156 224.984 859.32 224.984C854.445 224.984 850.754 223.109 848.246 219.359C846.23 216.336 845.223 212.586 845.223 208.109C845.223 202.625 846.699 198.266 849.652 195.031C852.629 191.773 856.109 190.145 860.094 190.145C863.422 190.145 866.305 191.516 868.742 194.258C871.203 196.977 872.527 201.02 872.715 206.387ZM864.066 204.031C864.066 200.258 863.855 197.668 863.434 196.262C863.035 194.855 862.402 193.789 861.535 193.062C861.043 192.641 860.387 192.43 859.566 192.43C858.348 192.43 857.352 193.027 856.578 194.223C855.195 196.309 854.504 199.168 854.504 202.801V204.031H864.066ZM921.99 220.66V232.895C921.99 234.582 922.119 235.73 922.377 236.34C922.658 236.949 923.08 237.395 923.642 237.676C924.205 237.957 925.306 238.098 926.947 238.098V239.398H908.209V238.098C909.662 238.051 910.74 237.641 911.443 236.867C911.912 236.328 912.146 234.934 912.146 232.684V197.984C912.146 195.664 911.877 194.188 911.338 193.555C910.798 192.898 909.755 192.523 908.209 192.43V191.129H921.99V195.453C923.138 193.766 924.31 192.547 925.505 191.797C927.216 190.695 929.08 190.145 931.095 190.145C933.509 190.145 935.701 190.906 937.67 192.43C939.662 193.953 941.173 196.062 942.205 198.758C943.236 201.43 943.752 204.312 943.752 207.406C943.752 210.734 943.213 213.781 942.134 216.547C941.08 219.289 939.533 221.387 937.494 222.84C935.478 224.27 933.228 224.984 930.744 224.984C928.939 224.984 927.252 224.586 925.681 223.789C924.509 223.18 923.279 222.137 921.99 220.66ZM921.99 217.109C924.005 219.969 926.162 221.398 928.459 221.398C929.724 221.398 930.767 220.73 931.588 219.395C932.806 217.426 933.416 213.676 933.416 208.145C933.416 202.473 932.748 198.594 931.412 196.508C930.521 195.125 929.326 194.434 927.826 194.434C925.459 194.434 923.513 196.145 921.99 199.566V217.109ZM984.385 206.387H966.35C966.561 210.746 967.721 214.191 969.83 216.723C971.448 218.668 973.393 219.641 975.666 219.641C977.073 219.641 978.35 219.254 979.498 218.48C980.647 217.684 981.877 216.266 983.19 214.227L984.385 215C982.604 218.633 980.635 221.211 978.479 222.734C976.323 224.234 973.827 224.984 970.991 224.984C966.116 224.984 962.424 223.109 959.916 219.359C957.901 216.336 956.893 212.586 956.893 208.109C956.893 202.625 958.37 198.266 961.323 195.031C964.299 191.773 967.78 190.145 971.764 190.145C975.092 190.145 977.975 191.516 980.412 194.258C982.873 196.977 984.198 201.02 984.385 206.387ZM975.737 204.031C975.737 200.258 975.526 197.668 975.104 196.262C974.705 194.855 974.073 193.789 973.205 193.062C972.713 192.641 972.057 192.43 971.237 192.43C970.018 192.43 969.022 193.027 968.248 194.223C966.866 196.309 966.174 199.168 966.174 202.801V204.031H975.737ZM995.804 224V222.699C997.445 222.699 998.464 222.254 998.862 221.363C999.284 220.449 999.495 219.324 999.495 217.988V197.633C999.495 195.688 999.249 194.352 998.757 193.625C998.288 192.898 997.304 192.5 995.804 192.43V191.129H1012.36V192.43C1011.21 192.617 1010.42 193.074 1009.97 193.801C1009.55 194.527 1009.34 195.805 1009.34 197.633V218.34C1009.34 219.699 1009.53 220.625 1009.9 221.117C1010.28 221.586 1011 221.82 1012.08 221.82H1015.67C1016.86 221.82 1017.67 221.598 1018.09 221.152C1018.54 220.707 1018.76 219.77 1018.76 218.34V198.16C1018.76 196.051 1018.55 194.621 1018.13 193.871C1017.73 193.121 1016.91 192.641 1015.67 192.43V191.129H1031.66V192.43C1030.44 192.617 1029.62 193.074 1029.2 193.801C1028.8 194.527 1028.6 195.898 1028.6 197.914V218.34C1028.6 219.793 1028.8 220.742 1029.2 221.188C1029.6 221.609 1030.42 221.82 1031.66 221.82H1035C1036.2 221.82 1037 221.621 1037.39 221.223C1037.82 220.801 1038.03 219.887 1038.03 218.48V197.914C1038.03 195.922 1037.83 194.562 1037.43 193.836C1037.05 193.109 1036.25 192.641 1035 192.43V191.129H1051.6V192.43C1050.14 192.477 1049.16 192.84 1048.64 193.52C1048.13 194.176 1047.87 195.641 1047.87 197.914V217.988C1047.87 219.91 1048.17 221.176 1048.78 221.785C1049.42 222.395 1050.35 222.699 1051.6 222.699V224H995.804ZM1091.6 206.387H1073.56C1073.77 210.746 1074.93 214.191 1077.04 216.723C1078.66 218.668 1080.61 219.641 1082.88 219.641C1084.29 219.641 1085.56 219.254 1086.71 218.48C1087.86 217.684 1089.09 216.266 1090.4 214.227L1091.6 215C1089.82 218.633 1087.85 221.211 1085.69 222.734C1083.54 224.234 1081.04 224.984 1078.2 224.984C1073.33 224.984 1069.64 223.109 1067.13 219.359C1065.11 216.336 1064.11 212.586 1064.11 208.109C1064.11 202.625 1065.58 198.266 1068.54 195.031C1071.51 191.773 1074.99 190.145 1078.98 190.145C1082.3 190.145 1085.19 191.516 1087.62 194.258C1090.09 196.977 1091.41 201.02 1091.6 206.387ZM1082.95 204.031C1082.95 200.258 1082.74 197.668 1082.32 196.262C1081.92 194.855 1081.29 193.789 1080.42 193.062C1079.93 192.641 1079.27 192.43 1078.45 192.43C1077.23 192.43 1076.23 193.027 1075.46 194.223C1074.08 196.309 1073.39 199.168 1073.39 202.801V204.031H1082.95ZM1102.98 224V222.699C1104.34 222.699 1105.29 222.359 1105.83 221.68C1106.39 220.977 1106.67 219.652 1106.67 217.707V197.527C1106.67 195.465 1106.4 194.105 1105.86 193.449C1105.33 192.77 1104.36 192.43 1102.98 192.43V191.129H1119.72V192.43C1118.54 192.477 1117.71 192.781 1117.22 193.344C1116.75 193.906 1116.52 195.184 1116.52 197.176V205.859H1125.94V197.176C1125.94 195.535 1125.76 194.34 1125.41 193.59C1125.06 192.816 1124.18 192.43 1122.77 192.43V191.129H1139.47V192.43C1138.11 192.43 1137.15 192.77 1136.59 193.449C1136.05 194.105 1135.78 195.219 1135.78 196.789V217.707C1135.78 219.77 1136.05 221.105 1136.59 221.715C1137.13 222.324 1138.09 222.652 1139.47 222.699V224H1122.77V222.699C1123.95 222.676 1124.77 222.406 1125.24 221.891C1125.7 221.352 1125.94 220.039 1125.94 217.953V208.074H1116.52V217.707C1116.52 219.793 1116.75 221.152 1117.22 221.785C1117.71 222.395 1118.54 222.699 1119.72 222.699V224H1102.98ZM1171.46 224V222.699C1173.57 222.699 1174.62 221.129 1174.62 217.988V201.887L1165.2 217.988C1165.22 221.059 1166.29 222.629 1168.4 222.699V224H1151.67V222.699C1153 222.699 1153.95 222.324 1154.51 221.574C1155.08 220.824 1155.36 219.512 1155.36 217.637V197.352C1155.36 194.07 1154.13 192.43 1151.67 192.43V191.129H1168.4V192.43C1167.18 192.477 1166.34 192.828 1165.87 193.484C1165.42 194.141 1165.2 195.43 1165.2 197.352V213.383L1174.62 197.07C1174.6 195.336 1174.34 194.129 1173.85 193.449C1173.36 192.77 1172.56 192.43 1171.46 192.43V191.129H1188.19V192.43C1186.93 192.453 1185.99 192.77 1185.38 193.379C1184.77 193.988 1184.47 195.16 1184.47 196.895V217.812C1184.47 219.758 1184.74 221.059 1185.28 221.715C1185.84 222.371 1186.81 222.699 1188.19 222.699V224H1171.46ZM1234.1 191.129V192.43C1233 192.43 1232.14 192.723 1231.53 193.309C1230.95 193.895 1230.65 195.301 1230.65 197.527V216.266C1230.65 218.703 1230.91 220.367 1231.43 221.258C1231.94 222.125 1232.83 222.605 1234.1 222.699V224H1217.33V222.699C1219.65 222.582 1220.81 220.613 1220.81 216.793V209.164C1219.97 209.211 1219.49 209.234 1219.37 209.234C1219.02 209.234 1218.47 209.211 1217.72 209.164L1212.13 224H1199.12V222.699C1201.67 222.676 1203.49 221.223 1204.57 218.34L1208.37 208.109C1203.4 206.562 1200.91 203.773 1200.91 199.742C1200.91 197.68 1201.57 195.922 1202.88 194.469C1204.19 193.016 1205.73 192.102 1207.49 191.727C1209.27 191.328 1212.41 191.129 1216.91 191.129H1234.1ZM1220.81 193.836C1219.43 193.508 1218.27 193.344 1217.33 193.344C1215.34 193.344 1213.83 193.953 1212.8 195.172C1211.79 196.367 1211.28 197.879 1211.28 199.707C1211.28 201.957 1211.99 203.75 1213.39 205.086C1214.8 206.398 1216.9 207.055 1219.69 207.055C1219.94 207.055 1220.32 207.043 1220.81 207.02V193.836Z" fill="#04A6FF"/>
</svg>
